<svg xmlns="http://www.w3.org/2000/svg" viewBox="0 0 500 500"><g id="freepik--Character--inject-162"><path d="M129.42,337.19s22.09,85.6,30.83,119.43h89c-10-34.68-34.52-119.43-34.52-119.43Z" style="fill:#37474f"></path><path d="M89.87,422.79s-2,19.65-3.36,33.83h84.87c.52-12.21,1.2-27.75,1.23-27.76l.1-.05,3.72-1.84,13.38-6.56.56-.27c3.85-1.88,6.79-3.32,6.8-3.34s.14-.62.33-1.64c.48-2.44,1.44-7.47,2.64-13.83,1.49-7.87,3.36-17.8,5.16-27.46,3.39-18.09,6.55-35.27,6.63-36.39,0-.15,0-.24,0-.29v0l-114.8,0S77.56,385.76,89.87,422.79Z" style="fill:#37474f"></path><path d="M161.67,433.37c3.92-2.68,8.14-4.93,12.29-7.24s8.54-4.63,13-6.66c8.62-4,17.72-6.81,26.79-9.59.23-.07.38.3.15.39-8.73,3.71-17.2,8-25.89,11.75-4.37,1.91-8.77,3.75-13.15,5.65s-8.64,4.05-13,5.87C161.65,433.58,161.57,433.44,161.67,433.37Z" style="fill:#263238"></path><path d="M185.57,391.19c.11-4.22.41-8.44.63-12.66.5-10,.89-20,1.83-29.93a.31.31,0,0,1,.62,0c.13,7.71-.17,15.44-.33,23.15-.08,3.85-.19,7.71-.3,11.57a110.1,110.1,0,0,0-.08,11.05c.21,2.78.83,8.18,4.51,8.52,3.46.31,5.36-3.38,6.23-6.08,2.19-6.86,3-14.27,3.68-21.41.43-4.23,1.77-21.43,1.53-25.7,0-.28.42-.27.44,0,.24,4.35.48,21.85.2,26.19-.28,4.16-.63,8.34-1.27,12.47a44.51,44.51,0,0,1-2.71,11c-1.28,2.92-2.8,5.51-6.13,6.15a6.57,6.57,0,0,1-1.23.12c0,.9-.16,1.8-.23,2.68-.1,1.4-.27,2.79-.46,4.18a31.12,31.12,0,0,1-.87,4,14.72,14.72,0,0,1-1.44,3.86.22.22,0,0,1-.4-.11,18.94,18.94,0,0,1,.34-4c.19-1.36.38-2.73.66-4.07s.53-2.65.81-4c.18-.88.31-1.79.47-2.69a6.53,6.53,0,0,1-4.9-3.81C185.61,398.56,185.48,394.72,185.57,391.19Z" style="fill:#263238"></path><path d="M102.76,384.23c6.13.42,12.18,1.2,18.33.48a32.21,32.21,0,0,0,16-6.17c10.11-7.74,14.54-20.39,17.28-32.26a.22.22,0,0,1,.43.06c-1.14,10.29-3.39,20.94-10.13,29.23a32.55,32.55,0,0,1-10.75,8.74,32,32,0,0,1-14.21,2.88,69.26,69.26,0,0,1-17-2.27A.35.35,0,0,1,102.76,384.23Z" style="fill:#263238"></path><path d="M170.35,456.62h1.53c.25-4.07.46-8.16.59-12.24.09-2.71.11-5.43.14-8.13,0-2.48.14-5,.1-7.44v-.21c0-.17,0-.33,0-.48a.14.14,0,0,0-.28,0c0,.23,0,.45-.07.67-.34,2.85-.51,5.74-.77,8.6-.48,5.45-.8,10.91-1.09,16.38C170.44,454.71,170.4,455.67,170.35,456.62Z" style="fill:#263238"></path><path d="M246.81,269.16l-16.16.81c-3.24-5.55-7.13-15.41-5.94-29.55.22-2.34-5,11.21-2.26,30-17.06.86-40.27,2-60.54,2.83-.6-7.91-1.52-15.22-1.52-15.22a87.64,87.64,0,0,1-2.89,15.41c-2.77.14-5.49.21-8.1.31.27-12.31-2.38-33.67-2.38-33.67a108.52,108.52,0,0,1-9.14,34.07c-12.88.39-21.36.4-20.83-.22,18.89-22.85,4.29-35.34,9.31-55.16,6-23.75,26.26-28,25.19-45.71-.84-14.4-3.32-40.48,14.74-46.55,0,0,14.37-16.6,37.85-8.29,29.05,10.26,18.84,55,21,64,3.13,12.84,9.4,17.23,14.37,31.83,5.08,14.77-1.45,24.84-1.95,35S250,269.05,246.81,269.16Z" style="fill:#263238"></path><path d="M116.39,270.73A50.48,50.48,0,0,0,122.31,258c1.36-4.43.6-8.91-.41-13.53a142.08,142.08,0,0,1-2.74-14.17,37.49,37.49,0,0,1,1-14.87,32.85,32.85,0,0,1,7.42-13,86.73,86.73,0,0,1,10.81-9.69c3.65-3,7.29-6,10-9.74a25.84,25.84,0,0,0,4.83-13,24.29,24.29,0,0,1-3.37,14c-2.51,4.26-6.07,7.72-9.59,10.94a107.27,107.27,0,0,0-10,9.82,31.37,31.37,0,0,0-6.43,11.75,37,37,0,0,0-1,13.46c.38,4.6,1.36,9.21,2.11,14a49,49,0,0,1,.66,7.33,21,21,0,0,1-1.44,7.36A41,41,0,0,1,116.39,270.73Z" style="fill:#263238"></path><path d="M220.84,134.29c2.38,5.4,3.37,11.3,4.36,17.08s1.49,11.68,2,17.51l.86,8.71a43.66,43.66,0,0,0,1.53,8.3c1.57,5.36,4.71,10,8.25,14.68a66.83,66.83,0,0,1,4.9,7.57,41.16,41.16,0,0,1,3.43,8.52,61.25,61.25,0,0,1,1.5,9,37.55,37.55,0,0,1-.26,9.11c-.45,3-1.22,5.88-1.85,8.68a44.63,44.63,0,0,0-1.13,8.49c-.28,5.62,2.83,11.13,7.46,14.68a18.25,18.25,0,0,1-9.28-14.64,44.15,44.15,0,0,1,.52-9c.43-2.95,1.09-5.78,1.34-8.59a46.51,46.51,0,0,0-1.78-16.73,41.23,41.23,0,0,0-3.22-7.7,64.5,64.5,0,0,0-4.72-7.12,87.7,87.7,0,0,1-5-7.44,36.93,36.93,0,0,1-3.63-8.47,47.33,47.33,0,0,1-1.39-9c-.24-3-.37-5.88-.5-8.81-.28-5.85-.47-11.69-.91-17.51A85,85,0,0,0,220.84,134.29Z" style="fill:#263238"></path><path d="M180.57,228.66c7.7,10.42,63.86,78.57,76.14,83.84,10.79,4.63,47.38,16.94,44.89-13.84-1.62-20-79.23-75.77-111.86-88.66C174.76,204.07,164.39,206.81,180.57,228.66Z" style="fill:#d3766a"></path><path d="M222.34,226.31l-17.58,39.32s-19.63-23.89-28.65-41.28S170.64,198.48,196.4,212C211.35,219.88,222.34,226.31,222.34,226.31Z" style="fill:#407BFF"></path><path d="M179.07,224.76a2.89,2.89,0,0,1-1.4,2.47c-.54-1-1.06-1.94-1.55-2.88-.41-.78-.78-1.53-1.13-2.28a2.94,2.94,0,0,1,4.08,2.69Zm32.06-2.92a2.92,2.92,0,1,0,2.92,2.91A2.91,2.91,0,0,0,211.13,221.84ZM193.64,249.3a2.89,2.89,0,0,0-1.24.28q1.75,2.41,3.41,4.58a2.91,2.91,0,0,0-2.17-4.86Z" style="fill:#fff"></path><path d="M199.52,256.28a221,221,0,0,1,14.2-30.92.17.17,0,0,1,.31.13c-1,2.7-11.26,26.19-14.29,30.91C199.66,256.52,199.47,256.41,199.52,256.28Z" style="fill:#263238"></path><path d="M215,242.79l-10.22,22.84s-19.62-23.9-28.63-41.28c-3.26-6.28-4.88-11.39-4.4-14.73Z" style="fill:#050400;opacity:0.1"></path><path d="M193,294.24a90.06,90.06,0,0,0-15.65,3.3c-2.55.82-5,1.78-7.55,2.81-1.24.52-2.49,1-3.75,1.43a14.29,14.29,0,0,1-4,1c-.12,0-.12.23,0,.23a24.06,24.06,0,0,0,3.89-.13,22.65,22.65,0,0,0,3.7-.89c2.6-.8,5.15-1.76,7.74-2.59,5.21-1.69,10.42-3.38,15.72-4.6C193.34,294.71,193.28,294.2,193,294.24Z" style="fill:#263238"></path><path d="M206.12,299.79a95.63,95.63,0,0,0-13.1-.63c-2.19.06-4.36.27-6.54.54-1,.14-2.07.29-3.11.47s-2.26.56-3.4.73c-.12,0-.12.24,0,.23,1.08-.12,2.18,0,3.26-.07l3.27-.14c2.18-.09,4.36-.14,6.54-.26,4.36-.22,8.71-.39,13.08-.44C206.37,300.22,206.35,299.81,206.12,299.79Z" style="fill:#263238"></path><path d="M208,299.81l7.47,37.82-118.36-.44s12.09-89.63,43.1-120.69c15.51-15.54,32.91-13.62,43.58-1.9,2.69,3,31.39,38.2,34.24,55.29C220.54,285,208,299.81,208,299.81Z" style="fill:#407BFF"></path><path d="M144.09,224.75a2.92,2.92,0,1,1-2.92-2.91A2.92,2.92,0,0,1,144.09,224.75Zm32.06-2.91a2.92,2.92,0,1,0,2.92,2.91A2.91,2.91,0,0,0,176.15,221.84Zm-35,52.93a2.92,2.92,0,1,0,2.92,2.91A2.91,2.91,0,0,0,141.17,274.77Zm35,0a2.92,2.92,0,1,0,2.92,2.91A2.91,2.91,0,0,0,176.15,274.77Zm35,0a2.92,2.92,0,1,0,2.92,2.91A2.91,2.91,0,0,0,211.13,274.77ZM123.68,249.3a2.92,2.92,0,1,0,2.92,2.91A2.91,2.91,0,0,0,123.68,249.3Zm35,0a2.92,2.92,0,1,0,2.92,2.91A2.91,2.91,0,0,0,158.66,249.3Zm35,0a2.92,2.92,0,1,0,2.92,2.91A2.91,2.91,0,0,0,193.64,249.3Zm-87.45,78.4a2.92,2.92,0,1,0,2.92,2.91A2.91,2.91,0,0,0,106.19,327.7Zm35,0a2.92,2.92,0,1,0,2.92,2.91A2.91,2.91,0,0,0,141.17,327.7Zm35,0a2.92,2.92,0,1,0,2.92,2.91A2.91,2.91,0,0,0,176.15,327.7Zm35,0a2.92,2.92,0,1,0,2.92,2.91A2.91,2.91,0,0,0,211.13,327.7Zm-87.45-25.47a2.92,2.92,0,1,0,2.92,2.92A2.91,2.91,0,0,0,123.68,302.23Zm35,0a2.92,2.92,0,1,0,2.92,2.92A2.91,2.91,0,0,0,158.66,302.23Zm35,0a2.92,2.92,0,1,0,2.92,2.92A2.91,2.91,0,0,0,193.64,302.23Z" style="fill:#fff"></path><path d="M190.8,291.48a121.49,121.49,0,0,0-17.61,3.74c-2.85.87-5.65,1.87-8.44,2.93-1.39.53-2.79,1-4.2,1.49a19,19,0,0,1-4.53,1.07c-.14,0-.12.22,0,.22a32.26,32.26,0,0,0,4.39-.29,31,31,0,0,0,4.16-1c2.91-.86,5.77-1.85,8.67-2.74,5.84-1.79,11.68-3.58,17.64-4.95C191.17,291.91,191.08,291.44,190.8,291.48Z" style="fill:#263238"></path><path d="M205.81,296.09a131.37,131.37,0,0,0-14.85,0c-2.48.14-4.93.43-7.38.78-1.17.17-2.34.36-3.51.56s-2.54.62-3.82.82c-.13,0-.13.24,0,.22,1.22-.16,2.47-.12,3.7-.2l3.69-.27c2.47-.17,4.93-.32,7.4-.52,4.93-.39,9.85-.74,14.79-1C206.11,296.49,206.07,296.11,205.81,296.09Z" style="fill:#263238"></path><path d="M138.69,215.3C97.15,243.17,58.31,278.21,53,296.35c-7.38,25.13,6.92,30.87,14,31.95,19.22,3,71.18-68.47,87.62-96.51C170.54,204.57,147.81,209.18,138.69,215.3Z" style="fill:#d3766a"></path><path d="M142.17,256.71l-38.55-19.2s24.68-18.62,42.43-26.91,26.08-4.4,11.48,20.78C149.06,246,142.17,256.71,142.17,256.71Z" style="fill:#407BFF"></path><path d="M144.09,224.75a2.92,2.92,0,1,1-2.92-2.91A2.92,2.92,0,0,1,144.09,224.75Z" style="fill:#fff"></path><path d="M113.18,232.66a222.37,222.37,0,0,1,30.3,15.47.17.17,0,0,1-.14.31c-2.65-1.13-25.7-12.34-30.29-15.57C112.93,232.79,113.06,232.61,113.18,232.66Z" style="fill:#263238"></path><path d="M155.09,239.84c-1,1.24-2.07,2.47-3.16,3.66-.32.35-.62.7-.93,1.05A84.14,84.14,0,0,0,157,233.09c0-.1-.1-.15-.16-.08-3.08,4.09-5.56,8.58-8.21,12.94-1.31,2.16-2.58,4.35-3.87,6.52-.64,1.09-2.2,3.73-2.35,3.83a9.76,9.76,0,0,1-3-1,.17.17,0,1,0-.15.31c.71.3,3.23,1.76,3.67,1.69s4.51-6.71,6-9.17l1.13-1.88c.8-.79,1.61-1.59,2.33-2.45a41,41,0,0,0,2.92-3.88C155.28,239.84,155.16,239.77,155.09,239.84Z" style="fill:#263238"></path><path d="M182.91,293.09c-7.19,2.14,8.84,59.37,19.76,57.72,53.05-8.06,88.11-27.64,94.66-35.54,8.59-10.36,2.85-26.16-4.65-30.78C281.81,277.79,242.3,275.4,182.91,293.09Z" style="fill:#d3766a"></path><path d="M202.51,287.78c5-1.51,10.06-2.79,15.15-3.91s10.23-2.09,15.39-2.89c2.58-.41,5.17-.72,7.76-1.05s5.2-.55,7.82-.66a73.12,73.12,0,0,1,15.65.47c-1.31,0-2.61,0-3.91-.07l-3.89.15c-1.3,0-2.59.18-3.88.26s-2.59.22-3.88.36c-5.16.52-10.31,1.21-15.44,2S223,284.11,217.89,285Z" style="fill:#263238"></path><path d="M188.67,292s-21.09,3.87-36.2,8.62c-8.43,2.65-26.43,12-31.73,16.78-7.93,7.15-36.53,42.11-28.2,49.22,7.54,6.44,28.29-26.71,28.29-26.71s-23.9,31.6-13.39,37.69,29-34.49,29-34.49-23.82,33-12,37.59c8.94,3.44,27.73-32.37,27.73-32.37s-20.28,28.53-11.24,32.47c10,4.36,29.4-27.61,29.4-27.61,24.66,6.16,38.43-.49,48-6.78C220.57,344.86,188.67,292,188.67,292Z" style="fill:#d3766a"></path><path d="M128.4,328.43c-2.94,3.61-6,7.24-8.56,11.1s-5.09,7.82-7.32,11.9c-5.5,10-7.37,17.16-7.21,16.73,3.87-10.12,13-24.09,15.62-28s5-7.83,7.62-11.69C128.61,328.42,128.47,328.34,128.4,328.43Z" style="fill:#263238"></path><path d="M142.51,337.6c-3.56,4.77-7.27,9.38-10.61,14.31s-6.06,9.86-9.05,15c-.23.4.06.39.31,0,3.18-5,6.51-9.38,9.76-14.35s6.3-10.05,9.71-14.87C142.68,337.6,142.56,337.53,142.51,337.6Z" style="fill:#263238"></path><path d="M155.76,343.24c-5.81,7-10.31,15.1-14.54,23.13-.21.4.16.35.39-.05,4.7-7.77,8.32-13.91,14.4-22.88C156.1,343.3,155.89,343.09,155.76,343.24Z" style="fill:#263238"></path><polygon points="193.99 303.58 215.59 298.78 214.35 295.58 201.22 282.33 179.63 287.13 180.86 290.33 193.99 303.58" style="fill:#263238"></polygon><polygon points="192.76 300.38 214.35 295.58 201.22 282.33 179.63 287.13 192.76 300.38" style="fill:#37474f"></polygon><polyline points="214.35 295.58 201.22 282.33 179.63 287.13" style="fill:#37474f"></polyline><polygon points="221.02 348.83 237.06 344.19 215.94 303.07 215.59 298.78 193.99 303.58 198.82 307.81 221.02 348.83" style="fill:#407BFF"></polygon><path d="M54.39,330.23c13.12,9,28.1-.82,73.83-20.21,8-3.4,9.59-59.81.34-58.62-11.64,1.49-49.73,19.12-61.33,27.63C44.35,295.79,45,323.81,54.39,330.23Z" style="fill:#d3766a"></path><path d="M103.38,260.05s6.33-3.75,22.43-8.05c12.58-3.35,44.48-2.47,66.86,26.49,8.57,11.09,4.53,21.95-6.42,12-7.71-7-12.46-12.52-15.62-14.1,0,0,2.57,15.74-4,22.24a170.65,170.65,0,0,1-18.4,15.74A35,35,0,0,1,145,311.2a19.43,19.43,0,0,1-20.54,2.65l-14.24-.24Z" style="fill:#d3766a"></path><path d="M137.5,252.53c6.2,2.86,19.23,9.15,28.1,18,9.85,9.83,26.18,31.42,18.85,38.62-5.38,5.27-12.34-2.42-12.34-2.42s4.87,10.35-1,14c-5.38,3.38-10.4-2.9-10.4-2.9s1.87,6.79-3.93,9c-7,2.71-9.76-11.95-19.21-15.31C135.42,310.85,137.5,252.53,137.5,252.53Z" style="fill:#d3766a"></path><path d="M153.47,279.21c5.39,3.64,15.49,15.06,18.72,27.24.07.28-.09.48-.21.24a136.9,136.9,0,0,0-18.6-27.39A.06.06,0,0,1,153.47,279.21Z" style="fill:#263238"></path><path d="M143.84,289.44c4.32,3.62,14.21,15.86,17.06,28.31.06.28-.12.47-.23.23a146.24,146.24,0,0,0-16.93-28.45C143.69,289.47,143.79,289.39,143.84,289.44Z" style="fill:#263238"></path><path d="M79.8,271.48c2.37-1.51,4.83-2.88,7.29-4.26s5-2.64,7.49-3.9q7.56-3.76,15.47-6.83a112.08,112.08,0,0,1,16.18-5,67.74,67.74,0,0,1,8.39-1.3,30.21,30.21,0,0,1,8.44.44,34,34,0,0,0-8.37.29,69.58,69.58,0,0,0-8.19,1.69c-2.7.72-5.38,1.52-8,2.42s-5.29,1.83-7.9,2.84c-5.23,2-10.38,4.21-15.51,6.47-2.57,1.13-5.12,2.31-7.65,3.51S82.34,270.26,79.8,271.48Z" style="fill:#263238"></path><path d="M124.43,313.85a16.93,16.93,0,0,0,4.12,1.2,19.52,19.52,0,0,0,4.25.27,21.63,21.63,0,0,0,8.18-2l.27-.13.21.22,5.57,5.85c1.85,2,3.31,4.32,5.35,5.84a5.27,5.27,0,0,0,3.32,1.19,4.64,4.64,0,0,0,3.16-1.32,5.92,5.92,0,0,0,1.39-3.27,12.53,12.53,0,0,0-.06-3.77l-.41-2.47,1.68,1.87a11.16,11.16,0,0,0,5.13,3.45,5.14,5.14,0,0,0,2.91,0,4.47,4.47,0,0,0,2.34-1.63c1.12-1.6,1.25-3.89,1.09-6a28.18,28.18,0,0,0-1.35-6.4l-1-3.12,2.14,2.5c1.69,2,3.9,3.89,6.45,4.38a5.48,5.48,0,0,0,6.12-3.56,9.69,9.69,0,0,0,.33-4,21.06,21.06,0,0,0-.85-4,60.09,60.09,0,0,0-3.13-7.75,51.18,51.18,0,0,1,3.58,7.6,22.17,22.17,0,0,1,1.07,4.11,9.88,9.88,0,0,1-.2,4.32A6.46,6.46,0,0,1,179,311.5a9.83,9.83,0,0,1-4.07-1.71,15.52,15.52,0,0,1-3.23-2.94l1.12-.62a29.88,29.88,0,0,1,1.48,6.73,15.87,15.87,0,0,1,0,3.51,7.79,7.79,0,0,1-1.24,3.45,6.33,6.33,0,0,1-6.79,2.26,9.9,9.9,0,0,1-3.25-1.57,14.85,14.85,0,0,1-2.62-2.4l1.27-.59a14.09,14.09,0,0,1,0,4.25,7.27,7.27,0,0,1-1.8,4,5.18,5.18,0,0,1-1.91,1.26,6.59,6.59,0,0,1-2.2.45,6.67,6.67,0,0,1-4.12-1.49c-2.3-1.74-3.68-4.18-5.38-6.14l-5.38-6,.48.1a20.72,20.72,0,0,1-12.84,1.27A16.72,16.72,0,0,1,124.43,313.85Z" style="fill:#263238"></path><path d="M157.09,207.67c.18,2.42,9,19.36,19.76,20.53,3.51.37,6.41-18.7,6.41-18.7l.54-1.36,7.48-19-20.84-18.48-3-2.48s-1.7,5.34-3.76,12c-.09.31-.19.61-.29,1s-.25.72-.35,1.08c-.32,1-.64,2-.94,3-.24.78-.46,1.53-.68,2.35s-.44,1.62-.68,2.43C158.55,198.12,157,206.64,157.09,207.67Z" style="fill:#d3766a"></path><path d="M163.62,180.38a41.46,41.46,0,0,0,20.11,28.41l7.52-19.35-20.81-18.76-3-2.52S165.69,173.59,163.62,180.38Z" style="fill:#263238"></path><path d="M221.92,164.79c-5.59,35.44-27.45,36.1-35.1,34.88-6.93-1.1-30.41-5.73-28.52-41.57s20.15-44.43,36.15-42.75S227.51,129.34,221.92,164.79Z" style="fill:#d3766a"></path><path d="M214.54,158.28c-.81-.26-1.52-.63-2.31-1a4,4,0,0,1-2.16-1.43,1.28,1.28,0,0,1,.3-1.55,3.16,3.16,0,0,1,3.23-.14,4.7,4.7,0,0,1,2.59,2.19A1.38,1.38,0,0,1,214.54,158.28Z" style="fill:#263238"></path><path d="M190.72,154.35a23.3,23.3,0,0,0,2.51.09,4.06,4.06,0,0,0,2.57-.4,1.28,1.28,0,0,0,.37-1.52A3.17,3.17,0,0,0,193.3,151a4.65,4.65,0,0,0-3.27.9A1.38,1.38,0,0,0,190.72,154.35Z" style="fill:#263238"></path><path d="M193.91,162.53c0-.1-.21.07-.23.17-.46,2.42-1.4,5.12-3.76,5.43-.08,0-.1.14,0,.14C192.65,168.49,193.86,164.9,193.91,162.53Z" style="fill:#263238"></path><path d="M192.33,159.53c-3.81-1.17-5.86,6.54-2.33,7.61S195.52,160.5,192.33,159.53Z" style="fill:#263238"></path><path d="M190.71,159.53c-.79.26-1.66.85-2.49.72s-1.46-1.15-1.86-2.09c0-.1-.13,0-.16.05-.41,1.47-.25,3.14,1.28,3.78s2.77-.45,3.53-1.84C191.15,159.9,191,159.43,190.71,159.53Z" style="fill:#263238"></path><path d="M208.55,165.23c0-.08.17.16.15.26-.55,2.4-.78,5.25,1.25,6.49.07,0,0,.15,0,.13C207.31,171.21,207.64,167.43,208.55,165.23Z" style="fill:#263238"></path><path d="M211.21,163.13c4,.46,2.73,8.34-.93,7.91S207.9,162.74,211.21,163.13Z" style="fill:#263238"></path><path d="M212.77,163.9c.56.51,1.06,1.37,1.79,1.53s1.63-.56,2.3-1.29c.07-.08.12,0,.11.1-.19,1.52-.93,3-2.42,3.07s-2.13-1.38-2.26-2.94C212.27,164.08,212.55,163.69,212.77,163.9Z" style="fill:#263238"></path><path d="M190.44,181.74c.39.73.71,1.66,1.55,2a6.67,6.67,0,0,0,2.71.2.09.09,0,0,1,.07.15,3.34,3.34,0,0,1-3.39.34,2.63,2.63,0,0,1-1.2-2.67C190.19,181.63,190.38,181.63,190.44,181.74Z" style="fill:#263238"></path><path d="M193.23,175.87a8.19,8.19,0,0,0,4.77,4.55,10.11,10.11,0,0,0,2.89.65,2.76,2.76,0,0,0,.57,0,4.64,4.64,0,0,0,.53,0,.59.59,0,0,0,.57-.45h0a2.11,2.11,0,0,0,0-.25v0l0-.21c.37-1.82.68-4.64.68-4.64.61.45,3.76,2.59,3.87,1.62.91-8,1.93-16.9,1.15-25.06a.23.23,0,0,0-.45,0c-1.18,7.66-1,15.47-2.07,23.19a14,14,0,0,0-3.62-1.83c-.28,0-.5,5.45-.74,6.25a.19.19,0,0,1,0,.09c-3.14-.15-5.3-1.48-7.92-4.07C193.33,175.53,193.12,175.66,193.23,175.87Z" style="fill:#263238"></path><path d="M159,165.15c6.74,2,11-13.49,11-13.49s30.1-.25,36.42-23.71c0,0,2.58,16,16.82,25.37,0,0,3.18-26.32-16.74-34.74,0,0-24.22-13.51-42,4.58S154.5,163.83,159,165.15Z" style="fill:#263238"></path><path d="M206.87,126.2a26.3,26.3,0,0,1-3.06,10.68,27.36,27.36,0,0,1-7.08,8.75,23.56,23.56,0,0,1-2.3,1.66l-1.17.8c-.41.23-.83.44-1.25.65-.85.42-1.68.87-2.54,1.25s-1.77.63-2.66.93c-.44.14-.88.31-1.33.43l-1.37.29-2.74.58c-1.85.21-3.7.32-5.54.4,1.8-.46,3.61-.73,5.38-1.21l2.61-.79,1.31-.39c.42-.16.83-.35,1.25-.53.83-.36,1.65-.72,2.49-1s1.58-.87,2.37-1.3l1.17-.65,1.1-.77a22.61,22.61,0,0,0,2.15-1.6,31.47,31.47,0,0,0,7-8.08,36.09,36.09,0,0,0,4.18-10Z" style="fill:#263238"></path><path d="M166,163.38s-4.91-12.76-10.51-11.27-3.8,18.66,1.46,22.25a6.07,6.07,0,0,0,8.68-1.21Z" style="fill:#d3766a"></path><path d="M156.15,157c-.09,0-.14.09-.07.15,3.65,2.65,4.86,6.94,5.39,11.22-.84-1.8-2.28-3-4.65-2.1-.12.05-.06.24.06.25a3.72,3.72,0,0,1,3.67,2.25,17.54,17.54,0,0,1,1.11,3.7c.1.41.81.38.77-.08a.38.38,0,0,0,0-.1C163.81,167.16,161.58,158.92,156.15,157Z" style="fill:#263238"></path><path d="M163.75,176.3a3.11,3.11,0,1,1-3.11-3.1A3.11,3.11,0,0,1,163.75,176.3Z" style="fill:#fff"></path></g></svg>