<svg xmlns="http://www.w3.org/2000/svg" viewBox="0 0 500 500"><g id="freepik--Ghost--inject-3"><path d="M325.05,460.63c-.08-.14-.14-.29-.21-.43l0,0Z" style="fill:#407BFF"></path><path d="M393.92,371.68c1.62-16.06,21.44-27.78,18.34-43.62C410,316.64,396.53,310.14,394,298.77c-1.35-6.14.8-12.42,2.25-18.53s2-13.16-1.87-18.09c-4.55-5.79-13.05-6.17-19.62-9.48-9.21-4.66-14.38-15-23.41-20-14.16-7.87-31.47-.06-47.61,1.25-18.66,1.51-36.69-6-54.87-10.45s-39.51-5.13-53.36,7.46c-8.64,7.86-12.78,19.72-13.61,31.37s1.29,23.28,3.41,34.77c1.94,10.47,4.08,21.41,10.73,29.73,10.42,13,28.79,16.06,45.44,17.25s34.67,1.92,47.67,12.4c7.22,5.83,12.37,14.35,20.73,18.39,6.16,3,13.24,3.11,20.07,3.53s14,1.31,19.46,5.45,8.18,12.57,4.06,18c-2.57,3.4-6.93,4.77-10.77,6.61-18.31,8.8-26.81,33.58-17.89,51.8,3.48,4.31,4.58,4.32,8.68,5.92-3-1.92-2.72-6.65-.48-9.38s5.76-4,9-5.32A129.53,129.53,0,0,0,386,422.57c6-6,11.58-13.1,12.29-21.5C399.13,391.14,392.91,381.59,393.92,371.68Z" style="fill:#407BFF"></path><path d="M325.05,460.63c-.08-.14-.14-.29-.21-.43l0,0Z" style="fill:#fff"></path><g style="opacity:0.8"><path d="M393.92,371.68c1.62-16.06,21.44-27.78,18.34-43.62C410,316.64,396.53,310.14,394,298.77c-1.35-6.14.8-12.42,2.25-18.53s2-13.16-1.87-18.09c-4.55-5.79-13.05-6.17-19.62-9.48-9.21-4.66-14.38-15-23.41-20-14.16-7.87-31.47-.06-47.61,1.25-18.66,1.51-36.69-6-54.87-10.45s-39.51-5.13-53.36,7.46c-8.64,7.86-12.78,19.72-13.61,31.37s1.29,23.28,3.41,34.77c1.94,10.47,4.08,21.41,10.73,29.73,10.42,13,28.79,16.06,45.44,17.25s34.67,1.92,47.67,12.4c7.22,5.83,12.37,14.35,20.73,18.39,6.16,3,13.24,3.11,20.07,3.53s14,1.31,19.46,5.45,8.18,12.57,4.06,18c-2.57,3.4-6.93,4.77-10.77,6.61-18.31,8.8-26.81,33.58-17.89,51.8,3.48,4.31,4.58,4.32,8.68,5.92-3-1.92-2.72-6.65-.48-9.38s5.76-4,9-5.32A129.53,129.53,0,0,0,386,422.57c6-6,11.58-13.1,12.29-21.5C399.13,391.14,392.91,381.59,393.92,371.68Z" style="fill:#fff"></path></g><path d="M375.28,263.5c-5.64-4.27-10.85-7.84-15.71-11,4.28-2.75,7.36-7.53,6.81-12.53-.85-7.67-9-12.07-16.27-14.71-16.78-6.09-34.72-10-49.39-20.21-20.64-14.31-32.22-40.62-28.94-65.34.44-2.3.89-4.6,1.32-6.89.12-.51.24-1,.39-1.52l-.13.07.09-.48c2.41-13.43,3.28-28.33-4.31-39.67-7.91-11.8-23.62-16.66-37.66-14.51S205,87,194.43,96.49A138.64,138.64,0,0,0,149.55,200c.62,38.77,16.49,81.24,46,106.34,18.31,18,35.48,27.64,59.79,32.84,14.15,3,28,7.26,42,10.91,7.08,1.85,14.2,3.59,21.38,5,7.79,1.48,10.49.53,15.82,6.61,5.59,6.38,15.7,7.69,23.36,4s12.82-11.49,14.52-19.8.24-17-2.71-25a68.81,68.81,0,0,0-13.39-22,56.22,56.22,0,0,0,13.27-2.2C383.42,292.6,388.82,273.77,375.28,263.5Z" style="fill:#407BFF"></path><path d="M268.85,320.43l-.66-.2-1.86-.67c-.81-.3-1.79-.67-2.92-1.14s-2.42-1-3.81-1.63c-2.82-1.23-6.11-2.85-9.69-4.78s-7.4-4.27-11.29-6.89-7.44-5.37-10.58-7.95-5.84-5.07-8-7.23c-1.12-1.05-2.07-2.07-2.92-2.94s-1.57-1.65-2.14-2.29l-1.31-1.49c-.3-.34-.45-.52-.43-.54a4.23,4.23,0,0,1,.5.47l1.39,1.42c.59.62,1.32,1.37,2.19,2.22s1.84,1.85,3,2.89c2.22,2.12,5,4.54,8.08,7.12s6.7,5.25,10.57,7.89,7.7,4.91,11.23,6.89,6.82,3.6,9.61,4.88c1.38.67,2.66,1.19,3.78,1.69s2.08.9,2.88,1.22l1.82.76A2.76,2.76,0,0,1,268.85,320.43Z" style="fill:#263238"></path><g style="opacity:0.30000000000000004"><path d="M215.09,227.89c6.72,17.64,20.46,29.46,35.86,40.38s31.47,19.9,50.89,22.48c-7.19-2.89-15.53-5.31-23.32-9.2-10.51-5.24-21.11-13.64-30.76-20.33-12.25-8.49-23.49-20.49-32.67-33.33"></path></g><path d="M376,270.68c-4.78-6.14-13.87-12.95-20.52-17l2.32-2.37c4.24-4,6.58-10.18,4.24-14.51s-9.41-4-14.33-3.87a13.9,13.9,0,0,0-10.89,5.38c-3.67,5.14-2.49,12.38.4,18s9.88,9.27,12.65,14.95,1,14.12-2.95,19c-3,3.68-7.88,5.07-12.46,6.26,3.29,5.85,5.9,12.23,6.39,18.92s-1.35,13.75-6,18.62-12.26,7-18.4,4.32c6.18,6,11.38,12.11,17.55,18.08,5,4.48,14.3,8,20.74,5.44s11.64-9.57,13.2-16.34.05-13.7-2.17-20.27-5.54-11.77-8.67-18c-.94-1.87-4.55-6.55-4.7-8.64s.47-2.68,2.32-3.67,4.48-.36,6.55-.51c5.9-.43,11.54-2.28,14.75-7.38S379.72,275.44,376,270.68Z" style="fill:#407BFF"></path><g style="opacity:0.30000000000000004"><path d="M376,270.68c-4.78-6.14-13.87-12.95-20.52-17l2.32-2.37c4.24-4,6.58-10.18,4.24-14.51s-9.41-4-14.33-3.87a13.9,13.9,0,0,0-10.89,5.38c-3.67,5.14-2.49,12.38.4,18s9.88,9.27,12.65,14.95,1,14.12-2.95,19c-3,3.68-7.88,5.07-12.46,6.26,3.29,5.85,5.9,12.23,6.39,18.92s-1.35,13.75-6,18.62-12.26,7-18.4,4.32c6.18,6,11.38,12.11,17.55,18.08,5,4.48,14.3,8,20.74,5.44s11.64-9.57,13.2-16.34.05-13.7-2.17-20.27-5.54-11.77-8.67-18c-.94-1.87-4.55-6.55-4.7-8.64s.47-2.68,2.32-3.67,4.48-.36,6.55-.51c5.9-.43,11.54-2.28,14.75-7.38S379.72,275.44,376,270.68Z"></path></g><path d="M211.9,108c-1.21-1.36-4.67-1.82-7.3-.52-6.83,3.34-11.28,7.4-14.68,14.85a9.86,9.86,0,0,0-1.08,4.74,4.82,4.82,0,0,0,2.46,4c1.75.84,3.84.21,5.59-.63,5.59-2.7,10-7.37,13.56-12.45a14.75,14.75,0,0,0,2.47-4.83A5.81,5.81,0,0,0,211.9,108Z" style="fill:#263238"></path><path d="M224.51,108.52c1.75-.49,4.91,1,6.41,3.52,3.92,6.52,5.45,12.35,4.26,20.45a9.81,9.81,0,0,1-1.67,4.56,4.79,4.79,0,0,1-4.24,2c-1.92-.24-3.34-1.91-4.35-3.57-3.23-5.29-4.39-11.61-4.62-17.81a14.85,14.85,0,0,1,.55-5.4A5.79,5.79,0,0,1,224.51,108.52Z" style="fill:#407BFF"></path><g style="opacity:0.30000000000000004"><path d="M224.51,108.52c1.75-.49,4.91,1,6.41,3.52,3.92,6.52,5.45,12.35,4.26,20.45a9.81,9.81,0,0,1-1.67,4.56,4.79,4.79,0,0,1-4.24,2c-1.92-.24-3.34-1.91-4.35-3.57-3.23-5.29-4.39-11.61-4.62-17.81a14.85,14.85,0,0,1,.55-5.4A5.79,5.79,0,0,1,224.51,108.52Z"></path></g><path d="M222.06,141.91a10.63,10.63,0,0,0-2.49-2.93,16.44,16.44,0,0,0-5.19-3.08c-2.83-.77-6.87-2.2-9.7-1.42h0a15.09,15.09,0,0,0-13.92,10.92c-.69,2.4-.6,5.39,1.39,6.91,1.82,1.38,4.43.93,6.51,0s4-2.3,6.28-2.64a7.38,7.38,0,0,1,5.86,1.68c1.5,1.29,2.48,3.18,4.19,4.17a5.86,5.86,0,0,0,6.52-.78,8.09,8.09,0,0,0,2.63-6.25A13.22,13.22,0,0,0,222.06,141.91Z" style="fill:#407BFF"></path><g style="opacity:0.30000000000000004"><path d="M222.06,141.91a10.63,10.63,0,0,0-2.49-2.93,16.44,16.44,0,0,0-5.19-3.08c-2.83-.77-6.87-2.2-9.7-1.42h0a15.09,15.09,0,0,0-13.92,10.92c-.69,2.4-.6,5.39,1.39,6.91,1.82,1.38,4.43.93,6.51,0s4-2.3,6.28-2.64a7.38,7.38,0,0,1,5.86,1.68c1.5,1.29,2.48,3.18,4.19,4.17a5.86,5.86,0,0,0,6.52-.78,8.09,8.09,0,0,0,2.63-6.25A13.22,13.22,0,0,0,222.06,141.91Z"></path></g><path d="M219.57,139c-.32-.26-.67-.52-1-.78l-.24-.1c-2.78-.95-6.71-2.62-9.59-2h0a15.12,15.12,0,0,0-14.58,10c-.84,2.35-.93,5.35,1,7l.13.11a9.53,9.53,0,0,0,3.43-.86c2.08-.93,4-2.3,6.28-2.64a7.38,7.38,0,0,1,5.86,1.68c.12.1.22.2.33.31.69.71,1.32,1.6,2.07,2.32a5.65,5.65,0,0,0,8.31.76,8.09,8.09,0,0,0,2.63-6.25,13.22,13.22,0,0,0-2.1-6.59A10.63,10.63,0,0,0,219.57,139Z" style="fill:#263238"></path><path d="M194.57,121.35a26.41,26.41,0,0,1,18-12.34,4.29,4.29,0,0,0-.67-1c-1.21-1.36-4.67-1.82-7.3-.52-6.83,3.34-11.28,7.4-14.68,14.85a9.86,9.86,0,0,0-1.08,4.74,4.82,4.82,0,0,0,2.46,4,3.61,3.61,0,0,0,.82.28C191.58,127.87,192.78,124.35,194.57,121.35Z" style="fill:#407BFF"></path><path d="M227.14,108.85a6.1,6.1,0,0,0-2.83,3.44,14.43,14.43,0,0,0-.55,5.4c.23,6.2,1.39,12.52,4.62,17.81a8.07,8.07,0,0,0,3.1,3.19,5.39,5.39,0,0,0,2-1.64,9.81,9.81,0,0,0,1.67-4.56c1.19-8.1-.34-13.93-4.26-20.45A8,8,0,0,0,227.14,108.85Z" style="fill:#263238"></path><g style="opacity:0.30000000000000004"><path d="M194.57,121.35a26.41,26.41,0,0,1,18-12.34,4.29,4.29,0,0,0-.67-1c-1.21-1.36-4.67-1.82-7.3-.52-6.83,3.34-11.28,7.4-14.68,14.85a9.86,9.86,0,0,0-1.08,4.74,4.82,4.82,0,0,0,2.46,4,3.61,3.61,0,0,0,.82.28C191.58,127.87,192.78,124.35,194.57,121.35Z"></path></g><path d="M334.49,296.54h-.42l-1.23-.06c-1.08-.08-2.69-.12-4.73-.34a132.46,132.46,0,0,1-17.21-2.79,149,149,0,0,1-38.3-14.78,149.89,149.89,0,0,1-13.93-8.66,229.2,229.2,0,0,1-24.79-19.72,122.07,122.07,0,0,1-17-19.42,96.8,96.8,0,0,1-8.65-15.14c-.45-.93-.8-1.77-1.1-2.51s-.54-1.35-.75-1.86l-.45-1.14a2.51,2.51,0,0,1-.14-.4,2.54,2.54,0,0,1,.19.38l.5,1.12c.22.51.48,1.12.8,1.84s.67,1.57,1.14,2.48a100.15,100.15,0,0,0,8.76,15,123.53,123.53,0,0,0,17.08,19.29A233.21,233.21,0,0,0,259,269.48a149.91,149.91,0,0,0,13.88,8.65,147,147,0,0,0,13.67,6.72A144.23,144.23,0,0,0,311,293a139.25,139.25,0,0,0,17.15,2.95c2,.25,3.64.32,4.71.43l1.23.12A2,2,0,0,1,334.49,296.54Z" style="fill:#263238"></path><path d="M330.76,245a3.81,3.81,0,0,1-.78-.09l-2.22-.36c-1-.15-2.15-.36-3.5-.67s-2.91-.6-4.6-1.08l-2.65-.7c-.92-.25-1.86-.58-2.84-.88-2-.58-4-1.35-6.21-2.14a113.7,113.7,0,0,1-26.43-14.25c-1.85-1.39-3.63-2.68-5.2-4-.79-.65-1.57-1.26-2.29-1.89L272,217.07c-1.32-1.15-2.42-2.29-3.42-3.25s-1.83-1.83-2.48-2.55l-1.52-1.66a4.18,4.18,0,0,1-.5-.61,5.16,5.16,0,0,1,.58.53l1.58,1.6c.68.7,1.52,1.54,2.54,2.48s2.13,2.06,3.47,3.18l2.06,1.8c.72.62,1.51,1.22,2.3,1.87,1.58,1.31,3.36,2.59,5.21,4a129.33,129.33,0,0,0,12.71,7.93,127.41,127.41,0,0,0,13.61,6.26c2.16.8,4.2,1.59,6.17,2.18,1,.31,1.91.64,2.82.9l2.64.74c1.67.5,3.22.82,4.56,1.15s2.51.57,3.47.75l2.21.46A4.62,4.62,0,0,1,330.76,245Z" style="fill:#263238"></path><path d="M310,288.39a39.31,39.31,0,0,0-4.35.74,19.34,19.34,0,0,0-14.1,14.38,36,36,0,0,0-.65,4.36,4.54,4.54,0,0,1-.08-1.2,17.21,17.21,0,0,1,.37-3.24,18.86,18.86,0,0,1,14.37-14.66,17.38,17.38,0,0,1,3.24-.43A4.54,4.54,0,0,1,310,288.39Z" style="fill:#fff"></path><path d="M323.68,299.63a5.5,5.5,0,0,1,.46,2.12,12.21,12.21,0,0,1-.77,5.19,12.08,12.08,0,0,1-2.85,4.39,5.55,5.55,0,0,1-1.75,1.29c0-.07.6-.57,1.48-1.54a13.67,13.67,0,0,0,3.52-9.31C323.76,300.46,323.59,299.65,323.68,299.63Z" style="fill:#fff"></path><path d="M347,275.43a2.75,2.75,0,0,1,.32.74,5.69,5.69,0,0,1,.26.91,8.82,8.82,0,0,1,.24,1.24,14.39,14.39,0,0,1,.08,3.27,15.69,15.69,0,0,1-2.69,7.51,14.91,14.91,0,0,1-2.15,2.48,10.17,10.17,0,0,1-1,.8,6,6,0,0,1-.79.53,2.44,2.44,0,0,1-.71.37c-.06-.08.92-.68,2.21-2a16.05,16.05,0,0,0,2-2.48,16.48,16.48,0,0,0,2.61-7.28,15.58,15.58,0,0,0,0-3.19C347.26,276.54,346.88,275.46,347,275.43Z" style="fill:#fff"></path><path d="M325.13,247.55a14.63,14.63,0,0,1-3.12-.17,44.54,44.54,0,0,1-7.39-1.53,46.08,46.08,0,0,1-7-2.76,13.65,13.65,0,0,1-2.69-1.58,28.89,28.89,0,0,1,2.85,1.24,59.77,59.77,0,0,0,7,2.6,60.83,60.83,0,0,0,7.29,1.67A24.46,24.46,0,0,1,325.13,247.55Z" style="fill:#fff"></path><path d="M326.91,336.73c-.05-.09,1.22-.62,3-1.91a19.17,19.17,0,0,0,2.83-2.55,20.07,20.07,0,0,0,4.49-8.1,19.25,19.25,0,0,0,.67-3.75c.16-2.18-.07-3.53,0-3.55a3.53,3.53,0,0,1,.2.95,7.84,7.84,0,0,1,.11,1.12,12.15,12.15,0,0,1,0,1.5,18.11,18.11,0,0,1-.57,3.86,21.22,21.22,0,0,1-1.78,4.44,21.73,21.73,0,0,1-2.82,3.86,17.85,17.85,0,0,1-3,2.53,13.73,13.73,0,0,1-1.27.78,8.52,8.52,0,0,1-1,.5A3.06,3.06,0,0,1,326.91,336.73Z" style="fill:#fff"></path><path d="M295.8,286a5.4,5.4,0,0,1-1.94-.09,19.5,19.5,0,0,1-4.54-1.23,20.12,20.12,0,0,1-4.14-2.23,5.61,5.61,0,0,1-1.47-1.28,55.25,55.25,0,0,0,5.8,3A53.69,53.69,0,0,0,295.8,286Z" style="fill:#fff"></path><path d="M173.83,272.2l-.16-.23-.43-.7-1.6-2.7-1.15-2c-.4-.72-.8-1.53-1.25-2.39-.88-1.73-2-3.67-2.92-5.92l-1.58-3.49c-.54-1.22-1-2.53-1.54-3.86-1.11-2.66-2-5.58-3.08-8.64a139,139,0,0,1-6.5-41.41c0-3.23,0-6.3.28-9.17.1-1.43.15-2.82.29-4.15s.3-2.6.43-3.81c.23-2.44.66-4.61,1-6.52.16-1,.29-1.85.45-2.67s.35-1.55.5-2.22c.29-1.3.53-2.33.69-3.06l.2-.8c0-.18.07-.27.08-.26a.93.93,0,0,1,0,.27l-.14.81c-.15.74-.35,1.77-.61,3.08-.13.68-.28,1.42-.44,2.23s-.27,1.71-.42,2.66c-.27,1.92-.68,4.09-.88,6.52-.13,1.22-.26,2.48-.4,3.81s-.17,2.71-.26,4.13c-.22,2.86-.2,5.93-.23,9.15a155.1,155.1,0,0,0,1.71,20.87,155.37,155.37,0,0,0,4.77,20.39c1,3.06,1.93,6,3,8.63.53,1.33,1,2.64,1.52,3.86s1,2.39,1.54,3.5c.94,2.25,2,4.19,2.84,5.93.43.87.82,1.68,1.21,2.42l1.11,2,1.51,2.75.39.72A1,1,0,0,1,173.83,272.2Z" style="fill:#fff"></path><path d="M179.22,280.13a14.47,14.47,0,0,1-2.87-4.57c.13-.08.87.88,1.66,2.14A7.2,7.2,0,0,1,179.22,280.13Z" style="fill:#fff"></path><path d="M202.62,128.5a11.72,11.72,0,0,1-10.55,4.23,24.12,24.12,0,0,0,5.63-1.24A24.38,24.38,0,0,0,202.62,128.5Z" style="fill:#fff"></path><path d="M222.22,155.79a6.39,6.39,0,0,1-3.17,2.32,6.5,6.5,0,0,1-3.88.57c0-.16,1.74-.24,3.69-1.05A36.36,36.36,0,0,0,222.22,155.79Z" style="fill:#fff"></path><path d="M232,141.19a3.72,3.72,0,0,1-2.5,1.06,3.76,3.76,0,0,1-2.69-.42c0-.15,1.21.09,2.62-.09S231.9,141.06,232,141.19Z" style="fill:#fff"></path><path d="M233.57,241.51s-.16-.1-.43-.34L232,240.11c-.52-.46-1.13-1.05-1.83-1.74s-1.49-1.47-2.34-2.37a104.94,104.94,0,0,1-12-15.12,89.37,89.37,0,0,1-5.24-9.27c-.68-1.49-1.35-2.89-1.87-4.25-.26-.68-.54-1.33-.76-2l-.63-1.85c-.42-1.16-.68-2.25-.94-3.2-.12-.47-.24-.91-.35-1.33s-.15-.78-.22-1.13c-.11-.63-.21-1.15-.28-1.56a2.29,2.29,0,0,1-.07-.55,1.82,1.82,0,0,1,.17.53c.1.41.23.92.38,1.54.08.34.17.71.26,1.11s.25.85.39,1.31c.29.94.57,2,1,3.17.21.58.43,1.18.65,1.81s.52,1.27.79,1.94c.53,1.35,1.22,2.74,1.91,4.21a94.82,94.82,0,0,0,5.24,9.2,116.22,116.22,0,0,0,11.84,15.15c.83.91,1.59,1.72,2.28,2.42s1.26,1.31,1.76,1.79l1.12,1.13C233.46,241.36,233.59,241.5,233.57,241.51Z" style="fill:#fff"></path><path d="M376.56,367.41a14.52,14.52,0,0,0-16.49,18.69c1.28,4,4.32,7.74,3.64,11.88-1.14,6.91-11.61,9.27-12.48,16.21-.6,4.77,4,8.75,8.61,10,10.57,2.88,22.17-4,26.92-13.85a41.77,41.77,0,0,0,1-32.75c-1.73-4.19-6.75-9.29-11.2-10.19" style="fill:#407BFF"></path><circle cx="343.15" cy="433.58" r="5.6" style="fill:#407BFF"></circle><path d="M408.26,384.15c-3.84-2.78-5.06-8.13-4.21-12.79s3.41-8.8,5.91-12.82l7.39-11.88a2.22,2.22,0,0,1,1.09-1.07c1.16-.35,1.92,1.19,2.14,2.39.75,3.93,1.49,7.92,1.14,11.9s-2,8-5.11,10.48c-1.58,1.22-3.49,2-4.9,3.41-2.85,2.85-2.93,7.36-2.83,11.39" style="fill:#407BFF"></path><g style="opacity:0.8"><path d="M408.26,384.15c-3.84-2.78-5.06-8.13-4.21-12.79s3.41-8.8,5.91-12.82l7.39-11.88a2.22,2.22,0,0,1,1.09-1.07c1.16-.35,1.92,1.19,2.14,2.39.75,3.93,1.49,7.92,1.14,11.9s-2,8-5.11,10.48c-1.58,1.22-3.49,2-4.9,3.41-2.85,2.85-2.93,7.36-2.83,11.39" style="fill:#fff"></path></g></g></svg>