<svg xmlns="http://www.w3.org/2000/svg" viewBox="0 0 500 500"><g id="freepik--Character--inject-77"><path d="M111.65,396.49c1.5-6.24,3.63-12.73,8.51-16.89,5.59-4.77,13.48-5.46,20.82-5.84,40.69-2.11,81.47-1.64,122.21-1.18a183.89,183.89,0,0,1,20.33,1c6.79.83,13.87,2.64,18.66,7.51a28.58,28.58,0,0,1,6,10.39c7.37,19.9,7.76,54.69-14.6,71.46l-165,.05c-11.35-6.37-15.52-15.11-18.4-27.8S108.62,409.15,111.65,396.49Z" style="fill:#455a64"></path><g style="opacity:0.30000000000000004"><path d="M270.36,365.27a3.55,3.55,0,0,1,4.78,1.18q11.46,12.32,22.93,24.64a3.79,3.79,0,0,1,1,1.49,3.68,3.68,0,0,1-.42,2.3l-17.53,42.24a10.94,10.94,0,0,0-1.23,5.3c.21,2.07,1.55,3.82,2.83,5.45l9.81,12.46c-6.69.76-13.42,1.2-20.15,1.33l.94.28a41.08,41.08,0,0,1-12-4.28,9,9,0,0,1-3.56-3c-1.68-2.77-.36-6.31.93-9.28a269.62,269.62,0,0,0,14.14-41.57,24.48,24.48,0,0,1-9.15-9.25,2.87,2.87,0,0,0-1.17-1.37,2.76,2.76,0,0,0-1.81.09q-14.81,4.2-29.94,7.06c-13.18,2.5-26.65,4.23-40,2.89s-26.66-5.95-36.67-14.88A476.5,476.5,0,0,0,270.36,365.27Z"></path></g><path d="M116.38,389.14a1.92,1.92,0,0,1,.4.16l1.14.54c1,.49,2.49,1.17,4.42,2a151,151,0,0,0,16.74,6.25A145.76,145.76,0,0,0,165,403.52c9.91,1.18,20.92,1.19,32.43.77s22.5-.88,32.47-1.5,18.92-1.49,26.4-2.53,13.49-2.18,17.61-3.09c2.07-.43,3.66-.84,4.74-1.09l1.24-.28.42-.08a2,2,0,0,1-.41.13l-1.22.34c-1.08.27-2.66.72-4.72,1.17-4.12,1-10.12,2.21-17.61,3.27s-16.45,2-26.42,2.64-21,1.09-32.49,1.54-22.55.39-32.49-.81a144.3,144.3,0,0,1-26-5.52,140.91,140.91,0,0,1-16.72-6.42c-1.91-.89-3.39-1.61-4.37-2.13l-1.13-.58A2.92,2.92,0,0,1,116.38,389.14Z" style="fill:#263238"></path><path d="M147.27,419.62a9.91,9.91,0,0,1-.18-2.82,25.69,25.69,0,0,1,1.07-6.75,25.22,25.22,0,0,1,2.79-6.24,3,3,0,0,1,1.63-1.35c.53-.1.79.09.77.11a3,3,0,0,0-.71.09,3,3,0,0,0-1.38,1.35,30.37,30.37,0,0,0-2.6,6.19,32,32,0,0,0-1.21,6.62A25.77,25.77,0,0,1,147.27,419.62Z" style="fill:#263238"></path><path d="M138.94,410.09a4.29,4.29,0,0,1-.38-1.75,12,12,0,0,1,2.37-8.16,4.39,4.39,0,0,1,1.26-1.27,20.83,20.83,0,0,0-2.69,5.28A20.56,20.56,0,0,0,138.94,410.09Z" style="fill:#263238"></path><path d="M248.6,418.7a46.54,46.54,0,0,0,.7-8.11,45.87,45.87,0,0,0-1.27-8,8,8,0,0,1,.88,2.25,24.23,24.23,0,0,1,.41,11.6A7.89,7.89,0,0,1,248.6,418.7Z" style="fill:#263238"></path><path d="M254.19,413.69a54.29,54.29,0,0,0-.14-6,58,58,0,0,0-1.33-5.85,16.53,16.53,0,0,1,1.47,11.84Z" style="fill:#263238"></path><path d="M283,282.64l6,25,11.87,11.57-19.36,4s-13.69-1.62-16.16-5-6-30.27-6-30.27Z" style="fill:#ffbe9d"></path><path d="M241.8,212.2l18.06,6.67L259.18,313s-28.64,25-30.37,24.77-71.14,21.78-73,25.86c0,0-8.58-1.31-8.58-6.4,0-8.37,8-13.11,8-13.11-3.06-8.11,1.26-22.66,1.26-23.21,0-3.9.12-25.22.12-25.22s3.8-62.21,16.07-75.15C188,204.47,241.8,212.2,241.8,212.2Z" style="fill:#455a64"></path><g style="opacity:0.30000000000000004"><path d="M185.88,347.67c-4,.26-8.41.44-11.75-1.82-3-2-4.54-5.64-5.74-9.08a118.58,118.58,0,0,1-6.33-31.34,3.54,3.54,0,0,0-.49-1.88,7.16,7.16,0,0,0-1.49-1.16c-1.61-1.29-1.58-3.71-1.32-5.76a1.53,1.53,0,0,1,.34-.93,1.56,1.56,0,0,1,.94-.36l8.88-1.31a1.28,1.28,0,0,1,.93.11,1.17,1.17,0,0,1,.36.58c6.51,17,6.77,36.44,16.06,52.16"></path></g><path d="M289,280.92s-17.41-62.66-32.21-63.19l1.62,74.88S284.93,288.06,289,280.92Z" style="fill:#455a64"></path><g style="opacity:0.30000000000000004"><path d="M237.12,290c.9,2.44.06,5-1.23,7.24a15.53,15.53,0,0,1-5.58,5.34c-5.62,3.37-12.91,4.24-18.82,1.41a1.81,1.81,0,0,1-1.07-1,1.32,1.32,0,0,1,1-1.47,4.39,4.39,0,0,1,1.91,0c8.2.87,18.53-3.66,23.84-11.5"></path></g><path d="M211.11,301.25c0-.12,1.8.18,4.68,0a21.29,21.29,0,0,0,2.35-.24c.84-.1,1.72-.31,2.65-.51a28.61,28.61,0,0,0,11.05-5.4,26.32,26.32,0,0,0,2-1.78,22.92,22.92,0,0,0,1.63-1.7c1.9-2.18,2.76-3.77,2.86-3.72a5.92,5.92,0,0,1-.59,1.13,9,9,0,0,1-.8,1.25,16.71,16.71,0,0,1-1.19,1.57,17,17,0,0,1-1.61,1.77,23.19,23.19,0,0,1-2,1.85A27.38,27.38,0,0,1,220.9,301a26.93,26.93,0,0,1-2.7.47,21.26,21.26,0,0,1-2.39.18,17.86,17.86,0,0,1-2,0,9.55,9.55,0,0,1-1.48-.14A6.5,6.5,0,0,1,211.11,301.25Z" style="fill:#263238"></path><path d="M202.49,268.21a3.6,3.6,0,0,1,.57-.34c.37-.21.94-.49,1.69-.82a23.21,23.21,0,0,1,6.68-1.85,16.48,16.48,0,0,1,4.82.15,14.86,14.86,0,0,1,5.14,2c1.67,1,3.27,2.28,5,3.47a15.26,15.26,0,0,0,5.75,2.68,13.63,13.63,0,0,0,6.3-.48A37.74,37.74,0,0,0,244,270.8c1.75-.81,3.42-1.59,5.05-2.17a17.45,17.45,0,0,1,4.7-1.06,10.61,10.61,0,0,1,6.69,1.6,7.21,7.21,0,0,1,1.41,1.26,2.62,2.62,0,0,1,.38.54,10,10,0,0,0-1.9-1.63,10.68,10.68,0,0,0-6.55-1.41,17.67,17.67,0,0,0-4.58,1.1c-1.6.59-3.25,1.38-5,2.21a38.7,38.7,0,0,1-5.65,2.28,14,14,0,0,1-6.54.5,15.7,15.7,0,0,1-5.94-2.77c-1.73-1.21-3.31-2.48-4.94-3.48a14.94,14.94,0,0,0-9.67-2.2,24.28,24.28,0,0,0-6.64,1.67c-.76.29-1.34.55-1.73.73A2.92,2.92,0,0,1,202.49,268.21Z" style="fill:#fff"></path><path d="M202.49,274.61a3.6,3.6,0,0,1,.57-.34c.37-.21.94-.5,1.69-.83a23.25,23.25,0,0,1,6.68-1.84,16.46,16.46,0,0,1,4.82.14,14.89,14.89,0,0,1,5.14,2c1.67,1,3.27,2.28,5,3.46a15.28,15.28,0,0,0,5.75,2.69,13.77,13.77,0,0,0,6.3-.48A38.86,38.86,0,0,0,244,277.2c1.75-.81,3.42-1.6,5.05-2.18a17.83,17.83,0,0,1,4.7-1.06,10.6,10.6,0,0,1,6.69,1.61,7.21,7.21,0,0,1,1.41,1.26,2.33,2.33,0,0,1,.38.54,10,10,0,0,0-1.9-1.63,10.68,10.68,0,0,0-6.55-1.41,17.67,17.67,0,0,0-4.58,1.1c-1.6.59-3.25,1.38-5,2.2a37.63,37.63,0,0,1-5.65,2.29,14.17,14.17,0,0,1-6.54.5,15.57,15.57,0,0,1-5.94-2.78c-1.73-1.2-3.31-2.47-4.94-3.47a14.88,14.88,0,0,0-9.67-2.2,24.7,24.7,0,0,0-6.64,1.66c-.76.3-1.34.55-1.73.73A3.52,3.52,0,0,1,202.49,274.61Z" style="fill:#fff"></path><path d="M202.49,281a4.28,4.28,0,0,1,.57-.33c.37-.21.94-.5,1.69-.83a23.25,23.25,0,0,1,6.68-1.84,16.13,16.13,0,0,1,4.82.14,14.69,14.69,0,0,1,5.14,2c1.67,1,3.27,2.28,5,3.46a15.26,15.26,0,0,0,5.75,2.68,13.5,13.5,0,0,0,6.3-.48A37.72,37.72,0,0,0,244,283.6c1.75-.82,3.42-1.6,5.05-2.18a17.83,17.83,0,0,1,4.7-1.06,10.67,10.67,0,0,1,6.69,1.6,7.19,7.19,0,0,1,1.41,1.27,2.33,2.33,0,0,1,.38.54,10.24,10.24,0,0,0-1.9-1.64,10.75,10.75,0,0,0-6.55-1.4,17.67,17.67,0,0,0-4.58,1.1c-1.6.58-3.25,1.37-5,2.2a36.59,36.59,0,0,1-5.65,2.28,14,14,0,0,1-6.54.51,15.72,15.72,0,0,1-5.94-2.78c-1.73-1.21-3.31-2.47-4.94-3.47a14.89,14.89,0,0,0-9.67-2.21,24.65,24.65,0,0,0-6.64,1.67c-.76.3-1.34.55-1.73.73A2.34,2.34,0,0,1,202.49,281Z" style="fill:#fff"></path><path d="M197.6,225.77a15.68,15.68,0,0,0-22.8-8.19,26.58,26.58,0,0,0-8.59,7.85c-7,10.74-9.68,70.45-9.68,70.45l45.3-1.79s1.4-36.66,0-53.23C201.17,233,199.22,230.19,197.6,225.77Z" style="fill:#455a64"></path><path d="M197.6,225.77a1.34,1.34,0,0,1,.14.3l.37.9,1.47,3.49a31.61,31.61,0,0,1,1.74,5.81,59.13,59.13,0,0,1,.9,8.12c.66,12.18.51,29.45-.15,49.71v.22h-.22l-43.55,1.74-1.75.07h-.28v-.28c.76-15.34,1.9-29.91,3.5-43.1a182.67,182.67,0,0,1,3.11-18.59c.34-1.44.72-2.84,1.15-4.2.2-.69.47-1.35.7-2a18.28,18.28,0,0,1,.89-1.9,21.6,21.6,0,0,1,5.21-5.93,26,26,0,0,1,6.08-3.78,15.52,15.52,0,0,1,6.29-1.15,16.1,16.1,0,0,1,9.46,3.52,15.77,15.77,0,0,1,4.06,5,13,13,0,0,1,.68,1.53c.14.35.2.53.2.53s-.09-.17-.25-.51a15.11,15.11,0,0,0-.72-1.5,15.73,15.73,0,0,0-13.44-8.27,15.38,15.38,0,0,0-6.15,1.17,25.49,25.49,0,0,0-6,3.77,21,21,0,0,0-5.09,5.83,17.59,17.59,0,0,0-.86,1.86c-.22.65-.49,1.3-.69,2-.42,1.35-.79,2.75-1.12,4.18a180.91,180.91,0,0,0-3.05,18.55c-1.58,13.17-2.7,27.74-3.46,43.06l-.27-.27,1.75-.07,43.55-1.7-.23.23c.7-20.25.91-37.51.34-49.67a59.11,59.11,0,0,0-.83-8.09,32.31,32.31,0,0,0-1.67-5.81c-.6-1.52-1.07-2.69-1.39-3.51S197.6,225.77,197.6,225.77Z" style="fill:#263238"></path><path d="M259.33,298.47a2.27,2.27,0,0,1,0-.52c.05-.4.11-.89.18-1.48l.68-5.45c.54-4.6,1.2-11,1.63-18s.45-13.46.26-18.08q-.08-1.72-.15-3.12c-.07-.9-.13-1.68-.18-2.35s-.08-1.09-.11-1.49a1.72,1.72,0,0,1,0-.52,1.78,1.78,0,0,1,.1.51c.06.39.13.88.21,1.48s.19,1.43.27,2.35.15,2,.23,3.12a158.41,158.41,0,0,1-.11,18.13c-.43,7.07-1.15,13.44-1.79,18-.32,2.29-.61,4.15-.84,5.43-.11.64-.2,1.13-.27,1.46A1.72,1.72,0,0,1,259.33,298.47Z" style="fill:#263238"></path><path d="M322.94,286.37c1.11-1.62,2.72-3.95,3.83-5.58a1.84,1.84,0,0,1,.44-.48,1.45,1.45,0,0,1,.8-.17,11,11,0,0,1,4.91,1.67L337,284a1,1,0,0,1,.32.22.79.79,0,0,1-.19,1.1,2.18,2.18,0,0,1-1.18.38c-4.08.51-8.19.84-12.3,1-.27,0-.62,0-.7-.29" style="fill:#ffbe9d"></path><path d="M353.36,410.61l26.87,24.53s34.19-19.09,39.39-15l-45.68,51.67-41.72-36.51Z" style="fill:#407BFF"></path><path d="M364.51,448a2.82,2.82,0,0,0,1.12,3.59,2.7,2.7,0,0,0,3.56-1.08,3,3,0,0,0-1.2-3.79c-1.28-.52-3.27.19-3.59,1.53" style="fill:#e0e0e0"></path><path d="M373.94,471.78l-4.06-3.85,45.32-48.1s3-1.42,4.42.28Z" style="fill:#263238"></path><path d="M381.35,433.85c.25.24-.75,1.6-1,3.56s.19,3.55-.12,3.7-1.43-1.52-1-3.89S381.17,433.59,381.35,433.85Z" style="fill:#263238"></path><path d="M388.39,429.51c.29.16-.25,1.63.06,3.43s1.22,3,1,3.29-1.8-.86-2.14-3.11S388.14,429.3,388.39,429.51Z" style="fill:#263238"></path><path d="M397.59,432.16c-.15.28-1.72-.48-2.53-2.35s-.31-3.54,0-3.46.4,1.46,1.09,3S397.79,431.89,397.59,432.16Z" style="fill:#263238"></path><path d="M250.81,349.84c.09,0-.42,1-.7,2.75a15.92,15.92,0,0,0,.5,6.73,35.27,35.27,0,0,0,2.63,6.32,16.83,16.83,0,0,1,1.24,2.59,14.39,14.39,0,0,1-1.56-2.41,28.41,28.41,0,0,1-2.81-6.36,14.53,14.53,0,0,1-.36-6.94,9.57,9.57,0,0,1,.66-2C250.63,350.05,250.78,349.83,250.81,349.84Z" style="fill:#407BFF"></path><path d="M314.71,416.56l-12.92,32.05s28.19,27.44,26,33.66l-63.46-27,21.44-51.12Z" style="fill:#407BFF"></path><path d="M283.87,438.8a2.83,2.83,0,0,0-3.05,2.2,2.71,2.71,0,0,0,2.15,3,3,3,0,0,0,3.22-2.34c.09-1.38-1.21-3-2.59-2.92" style="fill:#e0e0e0"></path><path d="M264.31,455.26l2.36-5.07,60,27.79s2.3,2.43,1.14,4.29Z" style="fill:#263238"></path><path d="M303.49,450c-.14.31-1.75-.21-3.7.13s-3.32,1.31-3.55,1.06,1-1.83,3.36-2.21S303.68,449.76,303.49,450Z" style="fill:#263238"></path><path d="M309,455.61c-.06.33-1.63.28-3.24,1.14s-2.5,2.12-2.81,2,.25-2,2.27-3S309.09,455.31,309,455.61Z" style="fill:#263238"></path><path d="M309.37,465.18c-.31-.05-.09-1.79,1.43-3.14s3.26-1.42,3.28-1.11-1.26.84-2.49,2S309.69,465.28,309.37,465.18Z" style="fill:#263238"></path><path d="M347.46,286.67l-27.22,27.41-58.82,13.39,16.17-31.63a8,8,0,0,1,6.09-4.33c11.94-1.61,46.35-6.29,61.65-8.84A2.39,2.39,0,0,1,347.46,286.67Z" style="fill:#e0e0e0"></path><path d="M347.46,286.67s.12-.15.3-.45a2.24,2.24,0,0,0,.27-1.51,2.36,2.36,0,0,0-1.52-1.86,2.85,2.85,0,0,0-1.59,0l-1.86.32c-5.26.88-12.88,2-22.3,3.41s-20.65,2.95-33.12,4.66c-1.55.23-3.17.39-4.71.68a7.71,7.71,0,0,0-4,2.41,8.38,8.38,0,0,0-1.32,2l-1.14,2.24-2.31,4.53L264.52,322l-2.87,5.61-.29-.38,58.83-13.33-.09.06c8.37-8.38,15.19-15.21,19.94-19.95l5.48-5.45,1.44-1.4c.32-.32.5-.47.5-.47s-.15.18-.46.51l-1.4,1.45-5.4,5.51-19.82,20.08,0,0h-.06l-58.8,13.45-.54.13.25-.5c.94-1.84,1.9-3.71,2.86-5.6l9.66-18.88,2.32-4.53,1.15-2.24a8.88,8.88,0,0,1,1.38-2.12,8.28,8.28,0,0,1,4.26-2.55c1.63-.32,3.18-.46,4.75-.69l33.14-4.54c9.43-1.33,17.05-2.44,22.31-3.25l1.87-.29a3,3,0,0,1,1.67,0,2.49,2.49,0,0,1,1.57,2,2.24,2.24,0,0,1-.33,1.56A1.81,1.81,0,0,1,347.46,286.67Z" style="fill:#263238"></path><path d="M303.22,305.54c.17,1.25,2,2,4,1.76s3.6-1.49,3.44-2.74-2-2-4-1.76S303.06,304.3,303.22,305.54Z" style="fill:#fff"></path><path d="M306.46,307.38c-1.73,0-3.12-.74-3.26-1.83h0a2,2,0,0,1,.89-1.76,5.72,5.72,0,0,1,5.31-.7,1.75,1.75,0,0,1,.43,3.23,5.26,5.26,0,0,1-2.57,1A5.46,5.46,0,0,1,306.46,307.38Zm1-4.61a5.52,5.52,0,0,0-.81.06,5.14,5.14,0,0,0-2.54,1,1.91,1.91,0,0,0-.88,1.71h0c.16,1.23,2,2,4,1.74a5.27,5.27,0,0,0,2.55-1,1.92,1.92,0,0,0,.87-1.71,1.9,1.9,0,0,0-1.29-1.43A4.73,4.73,0,0,0,307.48,302.77Z" style="fill:#fff"></path><path d="M279,300.77a2.73,2.73,0,0,1,.23-.72,20.38,20.38,0,0,1,.85-2,10.68,10.68,0,0,1,1.9-2.83,7.76,7.76,0,0,1,4.21-1.57c6.54-1.12,15.57-2.69,25.59-4.2l7.3-1.12c2.37-.31,4.66-.54,6.84-.79l11.59-1.27c3.28-.36,5.9-1,7.74-1.26.92-.15,1.63-.25,2.12-.29a3.18,3.18,0,0,1,.74,0,4.17,4.17,0,0,1-.73.14c-.48.08-1.19.21-2.1.39-1.82.33-4.42,1-7.73,1.43L326,288.06c-2.18.26-4.46.5-6.83.81l-7.3,1.14c-10,1.5-19,3-25.6,4a7.56,7.56,0,0,0-4.07,1.42,10.82,10.82,0,0,0-1.92,2.71c-.44.82-.73,1.47-.94,1.91A5,5,0,0,1,279,300.77Z" style="fill:#263238"></path><path d="M249,304.56s10.84-6.7,14.34-8.11,9.95-.7,11.5-2.1,5-4.62,5-4.62,2.8,2.94,1,5.6-8.69,6.16-8.69,6.16l24.11-1.59s1.82,1.32.84,2.86c0,0,1.7,1.82.29,3.64s-18.55,16.36-23.93,16.8-21-2.43-21-2.43Z" style="fill:#ffbe9d"></path><path d="M194.88,294.39l2.25,24.13s44.34-11,51.86-14l3.53,16.21S197.38,348.24,184,347.41s-21.84-51.53-21.84-51.53Z" style="fill:#ffbe9d"></path><path d="M180.43,328.21a2,2,0,0,1,0-.88,6.9,6.9,0,0,1,.67-2.3,9.2,9.2,0,0,1,2.17-2.84A12,12,0,0,1,187,320a32.7,32.7,0,0,1,7.69-1.5,20,20,0,0,1,3.23-.28,20.06,20.06,0,0,1-3.17.64,40,40,0,0,0-7.56,1.63,12.3,12.3,0,0,0-3.63,2.09,9.53,9.53,0,0,0-2.15,2.65A10.37,10.37,0,0,0,180.43,328.21Z" style="fill:#eb996e"></path><path d="M271.6,306.79a38.86,38.86,0,0,1,3.88.37,27.84,27.84,0,0,0,9.27-.33,41.33,41.33,0,0,0,4.84-1.71l4-1.53c1.12-.43,2-.77,2.67-1a4.74,4.74,0,0,1,1-.3,4.23,4.23,0,0,1-.93.49c-.61.28-1.51.67-2.62,1.14l-3.9,1.63a36.07,36.07,0,0,1-4.9,1.78,25.4,25.4,0,0,1-9.43.18c-1.2-.17-2.16-.34-2.82-.47A3.66,3.66,0,0,1,271.6,306.79Z" style="fill:#eb996e"></path><path d="M274.29,314.69c0-.1,1.51.09,3.92.05a13,13,0,0,0,4.13-.74,25.11,25.11,0,0,0,4.64-2.28c1.59-.94,3.1-1.88,4.55-2.61s2.75-1.33,3.79-1.95a13.94,13.94,0,0,0,3.05-2.4,2.75,2.75,0,0,1-.61.87,10.71,10.71,0,0,1-2.25,1.85c-1,.66-2.35,1.31-3.76,2s-2.9,1.69-4.51,2.64a24.23,24.23,0,0,1-4.75,2.29,13.14,13.14,0,0,1-4.27.65,22.61,22.61,0,0,1-2.89-.22A3.54,3.54,0,0,1,274.29,314.69Z" style="fill:#eb996e"></path><path d="M263.67,306.28c-.06,0-.28-.28-.37-.87a4.24,4.24,0,0,1,.35-2.24,6.45,6.45,0,0,1,1.28-1.84c.39-.4.68-.61.73-.56s-.84,1.14-1.53,2.61a5.11,5.11,0,0,0-.46,2C263.66,305.92,263.74,306.25,263.67,306.28Z" style="fill:#eb996e"></path><path d="M265.36,313c0,.05-.26,0-.53-.21a2.2,2.2,0,0,1-.72-1.15,2.14,2.14,0,0,1,.06-1.35c.13-.33.3-.47.35-.44s-.15.79.09,1.66S265.44,312.87,265.36,313Z" style="fill:#eb996e"></path><path d="M252.52,320.77l.27,0,.79.11,3,.48c2.66.39,6.51,1,11.36,1.45,1.21.1,2.49.21,3.82.21.33,0,.66,0,1,0a4.78,4.78,0,0,0,1-.1,9.51,9.51,0,0,0,2-.64,50.82,50.82,0,0,0,7.86-4.84c2.66-1.91,5.4-4,8.18-6.36,1.38-1.16,2.8-2.35,4.17-3.63.65-.66,1.45-1.25,1.65-2.09a2.86,2.86,0,0,0-.72-2.45l-.13-.15.1-.16a1.43,1.43,0,0,0,.15-1.32,2.79,2.79,0,0,0-.92-1.19l.16.05-9.1.6-15,1-1.18.08,1.05-.56a40.61,40.61,0,0,0,7.29-4.68,7.67,7.67,0,0,0,1.37-1.49,3.08,3.08,0,0,0,.52-1.81,5.74,5.74,0,0,0-1.52-3.4H280l-2.85,2.59c-.46.43-.92.84-1.38,1.26a5.46,5.46,0,0,1-1.48,1.14,13,13,0,0,1-3.5.63c-1.13.1-2.23.16-3.29.27a20.2,20.2,0,0,0-3,.48,12.62,12.62,0,0,0-2.65,1.05c-1.65.82-3.14,1.65-4.48,2.4-2.67,1.52-4.76,2.75-6.18,3.58l-1.63.95-.42.24-.15.07.13-.1.4-.27,1.59-1c1.41-.87,3.47-2.14,6.13-3.69,1.33-.77,2.81-1.62,4.47-2.46a12.82,12.82,0,0,1,2.7-1.1,23,23,0,0,1,3.08-.52c1.07-.11,2.17-.19,3.3-.29a12.77,12.77,0,0,0,3.36-.61,5.34,5.34,0,0,0,1.36-1.08l1.37-1.26,2.84-2.61.17-.16.15.17a6.16,6.16,0,0,1,1.66,3.71,3.52,3.52,0,0,1-.59,2.08,7.9,7.9,0,0,1-1.45,1.6,40.23,40.23,0,0,1-7.38,4.76l-.13-.48,15-1,9.1-.6h.1l.07.06a3.42,3.42,0,0,1,1.11,1.44,2,2,0,0,1-.21,1.77l0-.31a3.3,3.3,0,0,1,.83,2.91,2.91,2.91,0,0,1-.77,1.32c-.34.38-.69.68-1,1-1.39,1.28-2.81,2.48-4.2,3.64-2.8,2.31-5.55,4.44-8.23,6.35a50.45,50.45,0,0,1-8,4.83,8.89,8.89,0,0,1-2.07.65,4.68,4.68,0,0,1-1.05.11c-.34,0-.68,0-1,0-1.35,0-2.62-.14-3.84-.24-4.86-.5-8.71-1.17-11.36-1.62l-3-.55-.78-.17Z" style="fill:#eb996e"></path><path d="M265.21,327.28s65.08-16.6,72.16-16.15,29.89,4.64,21,31.21-48.7,94.07-48.7,94.07l-33.5-14.08,20-48.57s-41.9,12.61-59.14,13.61S205.67,364,205.67,364Z" style="fill:#263238"></path><path d="M320.77,335.88a11.91,11.91,0,0,1,2.16-2.06,30.82,30.82,0,0,1,6.12-3.82,32.92,32.92,0,0,1,6.83-2.3c1.79-.41,2.82-.87,2.85-.81a7.91,7.91,0,0,1-2.75,1.17,40.22,40.22,0,0,0-6.71,2.41,38.36,38.36,0,0,0-6.12,3.64C321.68,335.19,320.82,335.94,320.77,335.88Z" style="fill:#455a64"></path><path d="M308.25,357.23a3.83,3.83,0,0,1,.35-1c.26-.61.65-1.48,1.15-2.54a80.91,80.91,0,0,1,9.59-15.67c.73-.93,1.32-1.68,1.74-2.18a3.56,3.56,0,0,1,.7-.75,3.64,3.64,0,0,1-.54.87l-1.6,2.28c-1.35,1.91-3.23,4.56-5.1,7.61s-3.37,5.92-4.46,8c-.5,1-.93,1.78-1.3,2.47A4,4,0,0,1,308.25,357.23Z" style="fill:#455a64"></path><path d="M250.53,320.12a25.33,25.33,0,0,1,8.28-1.84c4.43-.23,10.83,0,15,2.8,6.88,4.58,94.87,97.46,94.87,97.46L344,448.89S298.67,416.05,286.55,403s-25.87-33.73-25.87-33.73-16.42,17.35-31.7,24.94c-9.51,4.72-32.79,10-52.82,8.23a30.59,30.59,0,0,1-27.78-33.82c0-.12,0-.23,0-.34a82.78,82.78,0,0,1,1.87-8.86h0Z" style="fill:#263238"></path><path d="M250.53,320.12s-.6.26-1.78.73l-5.24,2.08-20.06,7.92-73.08,28.71.12-.13c-.66,2.54-1.29,5.15-1.72,7.82a39.18,39.18,0,0,0-.35,4.07,20.29,20.29,0,0,0,0,2.06,18,18,0,0,0,.15,2.07c.1.68.2,1.37.31,2.06s.32,1.37.48,2.05a33.88,33.88,0,0,0,1.32,4,33.49,33.49,0,0,0,4.46,7.41,33.14,33.14,0,0,0,6.51,6,32.62,32.62,0,0,0,8.15,3.92,37.59,37.59,0,0,0,9.14,1.44c1.57.13,3.15.11,4.73.16s3.18,0,4.78-.08a131.34,131.34,0,0,0,19.41-2.22c3.27-.6,6.53-1.37,9.78-2.26a71.22,71.22,0,0,0,9.61-3.29,61.33,61.33,0,0,0,9-5.06c2.89-1.91,5.71-4,8.44-6.18A173.13,173.13,0,0,0,260.5,369l.22-.23.18.26c4.91,7.25,10.34,14.82,16.16,22.22,4.81,6.07,9.71,12,15.41,17s11.49,9.78,17.29,14.38c11.62,9.18,23.15,17.82,34.35,26l-.34,0,24.7-30.34v.31c-32.73-34.51-60.38-63.43-80.12-83.44q-3.71-3.75-7.06-7.05-1.65-1.66-3.26-3.17c-1.07-1-2.07-2-3.13-2.87l-.77-.66a4.08,4.08,0,0,0-.8-.58,8,8,0,0,0-.85-.48c-.28-.15-.57-.28-.86-.4a19,19,0,0,0-3.45-1.08,31.78,31.78,0,0,0-6.27-.67,34.78,34.78,0,0,0-5,.2,25.16,25.16,0,0,0-3.56.7c-1,.25-1.65.5-2.12.66l-.71.26a18.88,18.88,0,0,1,2.81-1,24.44,24.44,0,0,1,3.57-.74,35.91,35.91,0,0,1,5-.24,32,32,0,0,1,6.31.64,19.38,19.38,0,0,1,3.49,1.08c.29.12.59.25.87.4a7.37,7.37,0,0,1,.87.48,4.19,4.19,0,0,1,.81.59l.78.66c1.08.86,2.08,1.87,3.16,2.87s2.17,2.05,3.28,3.16q3.36,3.29,7.07,7c19.81,20,47.5,48.83,80.27,83.31l.14.14-.13.16-24.68,30.37-.15.18-.19-.14c-11.21-8.18-22.73-16.83-34.37-26-5.81-4.6-11.65-9.33-17.32-14.41s-10.66-11-15.47-17.07c-5.83-7.42-11.27-15-16.18-22.25l.4,0A175.39,175.39,0,0,1,245,383.81c-2.75,2.21-5.58,4.29-8.49,6.21a63.65,63.65,0,0,1-9.06,5.1,73.21,73.21,0,0,1-9.68,3.31c-3.27.89-6.54,1.65-9.81,2.25a129.74,129.74,0,0,1-19.49,2.22c-1.61.08-3.21.06-4.8.08s-3.18,0-4.75-.16a38.82,38.82,0,0,1-9.26-1.47,33.44,33.44,0,0,1-8.27-4,31.11,31.11,0,0,1-11.11-13.6,33.12,33.12,0,0,1-1.34-4.09c-.16-.69-.38-1.37-.49-2.08l-.3-2.09a14.94,14.94,0,0,1-.15-2.1,20.88,20.88,0,0,1,0-2.09c.11-1.39.12-2.77.36-4.12.44-2.7,1.07-5.31,1.74-7.87l0-.1.1,0,73.14-28.54,20.11-7.82,5.26-2Z" style="fill:#455a64"></path><path d="M340.42,293.76c-6.05,2.33-13.48,4.65-19.53,6.53a4.73,4.73,0,0,0-2.19,1.12,1.67,1.67,0,0,0-.14,2.25,2.42,2.42,0,0,0,1.89.39l4.45-.31a32.44,32.44,0,0,0-9.51,4.55c-.77.54-1.59,1.26-1.57,2.21a2,2,0,0,0,1.69,1.77,5.94,5.94,0,0,0,2.61-.17q8.25-1.83,16.42-4.08a6.11,6.11,0,0,0,1.82-.71,6.37,6.37,0,0,0,1.77-2.08q1.26-2,2.54-4.05a6.67,6.67,0,0,0,1.2-2.79,5.71,5.71,0,0,0-1.45-4.63" style="fill:#ffbe9d"></path><path d="M227.3,187.2,233.89,118c12.41-5.07,21.15,7.33,22.82,11.91s1.57,9.6,1.47,14.48-.17,9.89,1.55,14.45c1.61,4.28,4.66,7.82,7,11.75s4,8.75,2.36,13c-1.14,3.05-3.88,6-2.88,9.08a22.61,22.61,0,0,0,1.78,3.18,8.09,8.09,0,0,1-.23,7.16,14.06,14.06,0,0,1-5.05,5.31,22.91,22.91,0,0,1-35.4-21.13Z" style="fill:#407BFF"></path><path d="M166.21,174.73c.5-2.64,2.37-4.79,4.39-6.55s4.26-3.3,5.94-5.38c2.6-3.22,3.59-7.43,4.17-11.53s2.78-8.73,4.25-12.6,5.11-7.71,7.47-10.31l2,80.9A26.52,26.52,0,0,1,174.56,201a21,21,0,0,1-4.89-19.89C167.08,180.48,165.72,177.36,166.21,174.73Z" style="fill:#407BFF"></path><path d="M200.45,131.69l33.73-8.6c10.8-1.16,18,12.12,18.72,23,.79,12,1.27,26.78-.14,35.77-2.83,18.09-16.68,20.42-16.68,20.42s.08,5.69.1,13.77a19,19,0,0,1-18.32,19h0a19,19,0,0,1-19.6-18.12l-3.48-78.74A6.37,6.37,0,0,1,200.45,131.69Z" style="fill:#ffbe9d"></path><path d="M248.24,162.26A2.31,2.31,0,0,1,246,164.6a2.2,2.2,0,0,1-2.39-2.08,2.33,2.33,0,0,1,2.22-2.35A2.23,2.23,0,0,1,248.24,162.26Z" style="fill:#263238"></path><path d="M248.68,153c-.28.3-2-1-4.54-1s-4.32,1.27-4.59,1c-.13-.13.16-.68,1-1.26a6.37,6.37,0,0,1,3.67-1.14,6,6,0,0,1,3.61,1.16C248.56,152.33,248.82,152.88,248.68,153Z" style="fill:#263238"></path><path d="M223.19,162.26A2.31,2.31,0,0,1,221,164.6a2.2,2.2,0,0,1-2.39-2.08,2.33,2.33,0,0,1,2.22-2.35A2.23,2.23,0,0,1,223.19,162.26Z" style="fill:#263238"></path><path d="M223.7,153.59c-.29.3-2-1-4.54-1s-4.32,1.27-4.59,1c-.13-.13.15-.68,1-1.26a6.4,6.4,0,0,1,3.68-1.14,6,6,0,0,1,3.61,1.16C223.58,152.9,223.84,153.45,223.7,153.59Z" style="fill:#263238"></path><path d="M233.26,172.73c0-.14,1.54-.41,4.05-.74.63-.07,1.24-.19,1.34-.63a3.25,3.25,0,0,0-.43-1.89l-1.89-4.84c-2.63-6.9-4.54-12.58-4.26-12.68s2.64,5.41,5.27,12.31c.63,1.7,1.24,3.32,1.81,4.87a3.66,3.66,0,0,1,.34,2.5,1.59,1.59,0,0,1-1,.93,4.22,4.22,0,0,1-1.09.16C234.84,172.86,233.27,172.87,233.26,172.73Z" style="fill:#263238"></path><path d="M236.08,202.25a48.75,48.75,0,0,1-25.26-6.41s7.17,12.7,25.26,11Z" style="fill:#eb996e"></path><path d="M232.22,178.75a4.47,4.47,0,0,0-4-1.66,4.09,4.09,0,0,0-2.83,1.52,2.62,2.62,0,0,0-.19,3,3,3,0,0,0,3.27.82,9.65,9.65,0,0,0,3.19-1.91,2.93,2.93,0,0,0,.71-.74.83.83,0,0,0,0-.93" style="fill:#eb996e"></path><path d="M225.44,148.38c-.24.67-2.73.36-5.66.72s-5.29,1.16-5.68.55c-.17-.29.24-.93,1.19-1.59a9.56,9.56,0,0,1,4.21-1.48,9.46,9.46,0,0,1,4.43.51C225,147.52,225.55,148.05,225.44,148.38Z" style="fill:#407BFF"></path><path d="M248.57,143.56c-.54.57-2.67,0-5.24,0s-4.73.39-5.23-.2c-.22-.29.12-.85,1.07-1.39a8.5,8.5,0,0,1,4.25-.94,8.37,8.37,0,0,1,4.18,1.13C248.51,142.7,248.81,143.28,248.57,143.56Z" style="fill:#407BFF"></path><path d="M179.79,179.81c-.1-10.52,2.7-21,4.12-31.38.57-4.2,1.17-8.47,2.94-12.33,2.5-5.46,7.16-9.64,12.1-13.06,5.67-3.93,12-7.13,18.83-8.17s14.18.24,19.62,4.48a4.28,4.28,0,0,1,1.85,2.53c.68,2.58-.59,3.65-2.05,5.88a28.63,28.63,0,0,1-5.55,5.72l-9.69,8.3a74.32,74.32,0,0,1-7.14,5.61,73.19,73.19,0,0,1-7,3.93l-7.47,3.82a3.85,3.85,0,0,0-1.65,1.26,3.9,3.9,0,0,0-.41,1.58c-.8,7-.74,14.77-1.18,21.83-.5,8.05,6,30.4,6,30.4l-12-1.19c-5.31-1.21-10.54-7.78-11.29-13.18C179.09,190.79,179.83,183.9,179.79,179.81Z" style="fill:#407BFF"></path><path d="M199.09,162.91c-.19-3.84-4.38-6.41-7.71-4.48-1.83,1-3.23,3.18-3.06,7.26.45,10.89,11.29,8.2,11.29,7.88S199.32,167.41,199.09,162.91Z" style="fill:#ffbe9d"></path><path d="M196.12,169.58c-.05,0-.19.15-.5.31a1.94,1.94,0,0,1-1.42.08c-1.17-.37-2.21-2.16-2.35-4.12a6.4,6.4,0,0,1,.42-2.74,2.21,2.21,0,0,1,1.37-1.51,1,1,0,0,1,1.14.47c.16.3.1.52.16.54s.22-.19.12-.64a1.2,1.2,0,0,0-.46-.66,1.4,1.4,0,0,0-1.06-.24,2.66,2.66,0,0,0-1.91,1.77,6.36,6.36,0,0,0-.53,3.06c.16,2.19,1.36,4.2,3,4.59a2,2,0,0,0,1.72-.36C196.11,169.85,196.15,169.6,196.12,169.58Z" style="fill:#eb996e"></path><path d="M192.43,174.3a2.14,2.14,0,1,0,2.14-2.13A2.14,2.14,0,0,0,192.43,174.3Z" style="fill:#263238"></path><path d="M247.75,168.2c2.09-.23,4.68-.66,5.45-1.39,1.15-1.09,2.34-5.12,3.36-8.92.13-.49.21-.82.25-.91l-.8-.31a10.63,10.63,0,0,0-.29,1c-.54,2-2,7.46-3.12,8.53-1.34,1.26-12.5,1.91-13.54,1.19-.64-.52-2.15-5.37-3-8.65l-.07-.3-4.45-.12-.11.28c-.87,2.22-3.57,8.22-5.52,9.33-2.45,1.39-12,.72-12.69-.23s-2.27-6.48-3.24-10.08l-.08-.31-13.55.54,0,.82,12.85-.52c.49,1.79,2.45,8.91,3.29,10,1.15,1.53,11.36,1.86,13.83.45s5.18-8,5.78-9.47l3.18.09c.49,1.85,2.19,7.95,3.22,8.77s6.55.38,7.19.33S247,168.29,247.75,168.2Z" style="fill:#455a64"></path><path d="M231.26,159.78l.87-1.42c-5.86-3.22-16.3-4.55-22.93-1.1l.81,1.44C215.93,155.62,225.77,156.77,231.26,159.78Z" style="fill:#455a64"></path><path d="M256.27,157.83l.65-1.53c-7.11-2.7-16.28-1.82-21.8,2.1l1,1.31C241.13,156.17,249.78,155.36,256.27,157.83Z" style="fill:#455a64"></path><path d="M234.09,180.65a3.27,3.27,0,0,1-1.7.51,6.85,6.85,0,0,1-4.2-.91,6.77,6.77,0,0,1-2.81-3.25,3.42,3.42,0,0,1-.37-1.74c.09,0,.22.65.7,1.59a7.17,7.17,0,0,0,6.65,4C233.42,180.77,234.07,180.57,234.09,180.65Z" style="fill:#263238"></path><path d="M180.74,187.16a13,13,0,0,1-2.94-2.36,17.09,17.09,0,0,1-4.53-9.16,16.72,16.72,0,0,1,.49-7.12,17.19,17.19,0,0,1,4.07-7.1,22.93,22.93,0,0,1,7.59-4.92c2.89-1.24,6-2.16,9.1-3.32A74.71,74.71,0,0,0,211,144.54a78.26,78.26,0,0,0,6.42-5c1.9-1.69,3.64-3.31,5.12-4.89a77.36,77.36,0,0,0,6.59-7.86c.73-1,1.23-1.77,1.61-2.28l.43-.59c.1-.13.15-.2.16-.19a.75.75,0,0,1-.12.22c-.1.16-.22.37-.38.62-.35.53-.82,1.35-1.54,2.34a69.34,69.34,0,0,1-6.48,8c-1.48,1.6-3.2,3.25-5.11,5a77,77,0,0,1-6.43,5,73.07,73.07,0,0,1-16.53,8.73c-3.11,1.18-6.22,2.09-9.08,3.31a22.43,22.43,0,0,0-7.44,4.79,16.81,16.81,0,0,0-4.55,13.82,17.22,17.22,0,0,0,4.32,9.08,19.13,19.13,0,0,0,2,1.9l.57.44C180.68,187.1,180.75,187.15,180.74,187.16Z" style="fill:#263238"></path></g></svg>