<svg xmlns="http://www.w3.org/2000/svg" viewBox="0 0 500 500"><g id="freepik--Character--inject-385"><path d="M156.47,256.91l0,0S156.48,256.87,156.47,256.91Z" style="fill:#263238"></path><path d="M353.7,396.33c-.33-7.19-11.11-103.84-12.74-116.25-2.6-19.82-18.54-24.79-18.54-24.79h0l-54.19-18.7H214.61l-58.11,20.3,0,1c0-.54,0-.87,0-1-.58.32-14.88,4.39-18.31,18.48-1.87,7.7-23.7,116.93-24,120.14s2.57,22.79,18,25.36c5.77,1,18.26.07,31.61-1.41L153.29,473H321.73l-6-38.27c13.39-5.22,27.41-11,29.75-13.48C350.1,416.53,354,403.51,353.7,396.33ZM163.15,368.8Z" style="fill:#263238"></path><g style="opacity:0.30000000000000004"><path d="M207.19,385a30.56,30.56,0,0,0-2.48-10c-1.52-3.09-4.15-5.8-7.49-6.66s-7.34.53-8.82,3.65c-6.08,17-.55,26.66,11,35.87,1.84,1.47,4.11,2.61,6.36,1.94s2.66-2.29,2.77-4.6C208.87,398.35,208,391.76,207.19,385Z"></path></g><path d="M183.45,365.6a5.37,5.37,0,0,1-1.1.18l-3,.32c-2.6.25-6.23.58-10.38.93l.12,0c-.95.66-1.93,1.35-2.92,2.07a53.17,53.17,0,0,0-9.55,8.47,27.23,27.23,0,0,0-2.27,3.13,8,8,0,0,1-.75,1.22,6.72,6.72,0,0,1,.57-1.32,22.63,22.63,0,0,1,2.16-3.26,48.2,48.2,0,0,1,9.54-8.66c1-.73,2-1.41,2.93-2.07l.06,0h.06c4.16-.32,7.8-.59,10.41-.75l3.06-.17A5.24,5.24,0,0,1,183.45,365.6Z" style="fill:#263238"></path><path d="M209.66,384.32a1.1,1.1,0,0,1,.08.3l.19.9c.15.79.36,2,.53,3.47a113.87,113.87,0,0,1,.7,12.92c0,1.36,0,2.79,0,4.28a6.37,6.37,0,0,1-1.51,4.43,6.84,6.84,0,0,1-4.47,2.24l-5.19.9c-7.1,1.25-14.89,2.75-23.12,4.08s-16.11,2.27-23.3,2.9-13.7,1.13-19.17.74a26.93,26.93,0,0,1-3.87-.54,11,11,0,0,1-3.25-1.33,25.07,25.07,0,0,1-4.35-3.48c-1.1-1.07-1.9-1.94-2.45-2.53l-.61-.67a1.69,1.69,0,0,1-.2-.25l.24.21.65.64c.56.57,1.4,1.41,2.51,2.45a25.77,25.77,0,0,0,4.36,3.38,10.67,10.67,0,0,0,3.17,1.26,27.58,27.58,0,0,0,3.83.49c5.43.35,11.92-.15,19.09-.85s15.06-1.6,23.27-2.94,16-2.81,23.11-4l5.2-.89a6.35,6.35,0,0,0,4.23-2.07,5.88,5.88,0,0,0,1.42-4.15c.05-1.48.07-2.91.07-4.27a124,124,0,0,0-.53-12.89c-.14-1.52-.32-2.69-.43-3.49-.06-.37-.1-.67-.14-.9A1.2,1.2,0,0,1,209.66,384.32Z" style="fill:#263238"></path><path d="M175.13,303.3c.15,0-1.13,14.24-2.86,31.76s-3.23,31.73-3.38,31.71S170,352.54,171.76,335,175,303.29,175.13,303.3Z" style="fill:#263238"></path><path d="M313.29,290.92a1.27,1.27,0,0,1,0,.25c0,.19,0,.42,0,.71,0,.66-.05,1.57-.09,2.72-.08,2.37-.24,5.79-.46,10-.45,8.46-1.25,20.14-2.25,33s-1.86,24.55-2.4,33c-.26,4.2-.48,7.6-.63,10-.07,1.15-.14,2.06-.18,2.72,0,.29,0,.52-.06.71a.92.92,0,0,1,0,.24.87.87,0,0,1,0-.24v-.71c0-.67,0-1.58.08-2.73.08-2.37.24-5.79.46-10,.45-8.46,1.26-20.13,2.25-33s1.86-24.55,2.4-33c.27-4.19.48-7.6.63-10,.08-1.15.14-2,.18-2.72,0-.28.05-.52.06-.71A.92.92,0,0,1,313.29,290.92Z" style="fill:#263238"></path><path d="M348.69,394.62a42,42,0,0,0-3.11-4.42A24.36,24.36,0,0,0,335,383a43.8,43.8,0,0,0-7-1.63,15.45,15.45,0,0,0-9.48,1.55,9.31,9.31,0,0,1-1.3.65s.09-.1.29-.24a10.34,10.34,0,0,1,.92-.59,14.76,14.76,0,0,1,3.69-1.53,16,16,0,0,1,5.94-.31,40.49,40.49,0,0,1,7.08,1.61A23.62,23.62,0,0,1,345.86,390a21.69,21.69,0,0,1,2.23,3.32A7,7,0,0,1,348.69,394.62Z" style="fill:#263238"></path><path d="M320.46,432.93a2.6,2.6,0,0,1-.58.3l-1.72.77c-1.49.66-3.65,1.62-6.35,2.75a62.34,62.34,0,0,1-9.7,3.42,14.59,14.59,0,0,1-6.12.17,11.87,11.87,0,0,1-5.72-3.2,16.2,16.2,0,0,1-3.54-5.53,36.47,36.47,0,0,1-1.89-5.79A85.8,85.8,0,0,1,283,415.7c-.35-2.91-.55-5.26-.69-6.89-.06-.77-.1-1.4-.14-1.88a3.34,3.34,0,0,1,0-.66,3.06,3.06,0,0,1,.12.65c.06.48.14,1.1.23,1.87.2,1.62.46,4,.86,6.86a88.12,88.12,0,0,0,1.9,10.05,37,37,0,0,0,1.89,5.71,15.84,15.84,0,0,0,3.43,5.35,11.45,11.45,0,0,0,5.47,3.08,14.14,14.14,0,0,0,5.91-.14,65.6,65.6,0,0,0,9.66-3.29l6.41-2.6,1.76-.68A2.74,2.74,0,0,1,320.46,432.93Z" style="fill:#263238"></path><g style="opacity:0.30000000000000004"><path d="M209.77,410.15c-1.5,2.09-4.67,2.51-7.2,2.94-13.37,2.27-25.45,4.44-39,5.91l-1.72,8.84c13.68-2.19,27.76-5.08,40.67-10.09a16.25,16.25,0,0,0,4.93-2.67A6.17,6.17,0,0,0,209.77,410.15Z"></path></g><g style="opacity:0.30000000000000004"><path d="M287.25,409.19a50.46,50.46,0,0,0,6.18,20.9c.83,1.43,2.09,3,3.74,2.82,1.28-.14,2.17-1.29,2.84-2.38,2.59-4.18,4.94-8.16,5.74-13L293,412.44Z"></path></g><path d="M259.41,407.69c.09.12-9.63,7.74-21.69,17s-21.92,16.73-22,16.62,9.63-7.74,21.69-17S259.32,407.58,259.41,407.69Z" style="fill:#263238"></path><path d="M312.57,390a11.92,11.92,0,0,1,.14,1.67,18.81,18.81,0,0,1,0,2c0,.76-.1,1.63-.21,2.58a67.35,67.35,0,0,1-3.62,14.56,79.64,79.64,0,0,1-6.34,13.59,41.36,41.36,0,0,1-2.54,3.78,9.34,9.34,0,0,1-1.08,1.27,9.8,9.8,0,0,1,.92-1.39c.59-.88,1.44-2.18,2.38-3.85a88.71,88.71,0,0,0,6.17-13.58,73.87,73.87,0,0,0,3.74-14.42c.13-.95.25-1.8.29-2.56s.12-1.41.1-1.94A9.62,9.62,0,0,1,312.57,390Z" style="fill:#263238"></path><path d="M237.86,356.88s-14.85-23.72-26.5-19.06c0,0-5.92-4.85-9.7-1.74s-2.43,9.41-2.43,9.41-7.18-5.82-10.39-2.81-.87,8.15,0,10.68a45.6,45.6,0,0,1,1.36,7.86s-4.37-2.23-6.41,1.36,5.73,15.63,6.9,17.28,8.64,9,13.78,7.09,8.74-7.09,8.74-7.09Z" style="fill:#ffbe9d"></path><path d="M199.22,346.4a8.82,8.82,0,0,1,1.34.84l3.56,2.44,5.22,3.68a8,8,0,0,1,1.43,1.27,3.2,3.2,0,0,1,.79,1.89A3.87,3.87,0,0,1,209.3,360a6.54,6.54,0,0,1-4.13.44,14.06,14.06,0,0,1-3.59-1.35c-2.14-1.11-4-2.2-5.57-3.16s-2.77-1.79-3.6-2.39a8.17,8.17,0,0,1-1.25-1,10.34,10.34,0,0,1,1.37.81c.86.54,2.1,1.32,3.67,2.24s3.46,2,5.6,3a13.68,13.68,0,0,0,3.47,1.27,6,6,0,0,0,3.79-.39,3.37,3.37,0,0,0,2-3,4,4,0,0,0-2-2.79L203.9,350l-3.45-2.57A9.22,9.22,0,0,1,199.22,346.4Z" style="fill:#eb996e"></path><path d="M199.42,345.68s.16.09.44.29l1.21.92c1.05.79,2.56,1.95,4.48,3.3a30.73,30.73,0,0,0,7.17,3.94,17.55,17.55,0,0,0,4.69,1,10.1,10.1,0,0,0,5-.67,4.12,4.12,0,0,0,1.79-1.69,3,3,0,0,0,.2-2.31,11.59,11.59,0,0,0-2.67-3.9,55.85,55.85,0,0,0-6.14-5.48c-1.85-1.44-3.4-2.54-4.48-3.3l-1.24-.87c-.28-.2-.43-.31-.42-.33a2.74,2.74,0,0,1,.48.24c.3.17.73.44,1.29.79,1.12.71,2.7,1.77,4.59,3.18a51.52,51.52,0,0,1,6.27,5.44c.53.58,1.07,1.18,1.57,1.84a7.32,7.32,0,0,1,1.24,2.25,3.5,3.5,0,0,1-.24,2.7,4.46,4.46,0,0,1-2,1.9,10.43,10.43,0,0,1-5.27.72,17.9,17.9,0,0,1-4.81-1.1,29.76,29.76,0,0,1-7.22-4.09c-1.91-1.39-3.39-2.6-4.4-3.45l-1.15-1C199.53,345.82,199.4,345.69,199.42,345.68Z" style="fill:#eb996e"></path><path d="M189.53,361.18l10.44,5c1.18.57,2.56,1.43,2.51,2.74a2.7,2.7,0,0,1-.76,1.61,8.48,8.48,0,0,1-6.94,2.51,25.35,25.35,0,0,1-7.35-2" style="fill:#ffbe9d"></path><path d="M187.43,371.08c0-.11,1.74.62,4.57,1.34a12.91,12.91,0,0,0,5.05.28,8.44,8.44,0,0,0,2.79-1,5.55,5.55,0,0,0,2.21-2.14,1.58,1.58,0,0,0,0-1.39,3,3,0,0,0-1-1.09,21.28,21.28,0,0,0-2.67-1.4l-4.64-2.3-3.12-1.58a6.74,6.74,0,0,1-1.11-.65,6.89,6.89,0,0,1,1.2.46l3.18,1.44,4.7,2.19a22,22,0,0,1,2.75,1.43,3.35,3.35,0,0,1,1.17,1.27,2.1,2.1,0,0,1,0,1.83,7.27,7.27,0,0,1-5.39,3.37,12.57,12.57,0,0,1-5.22-.4,26.12,26.12,0,0,1-3.31-1.15A5.88,5.88,0,0,1,187.43,371.08Z" style="fill:#eb996e"></path><path d="M205.8,386.35l-15.73,11.87s-7.63-10.63-2.56-23.51h3.79l-.86,4.22,7.16,1.5Z" style="fill:#ffbe9d"></path><path d="M187.18,374.42,193,382a12,12,0,0,0,2.24,2.43,4.08,4.08,0,0,0,3.1.87" style="fill:#ffbe9d"></path><path d="M198.3,385.25a2.77,2.77,0,0,1-2.37-.21,6.57,6.57,0,0,1-2.08-1.6c-.66-.73-1.29-1.59-2-2.46-1.36-1.77-2.56-3.39-3.41-4.57a10.35,10.35,0,0,1-1.29-2,11,11,0,0,1,1.58,1.76c.93,1.13,2.18,2.71,3.53,4.48.69.88,1.3,1.74,1.92,2.46a6.66,6.66,0,0,0,1.88,1.59A5.1,5.1,0,0,0,198.3,385.25Z" style="fill:#eb996e"></path><path d="M191.7,376.11,211,357.69a9.8,9.8,0,0,1,7-2.71l98.82,2.89a2.07,2.07,0,0,1,1.16,3.74L290.22,382a2.62,2.62,0,0,1-1.67.5l-96-4.16A1.29,1.29,0,0,1,191.7,376.11Z" style="fill:#e0e0e0"></path><path d="M318.78,360.35a1.35,1.35,0,0,1-.35,0h-1l-3.91-.06L299.13,360l-47.43-1.27L225.59,358l-5.86-.18a21.33,21.33,0,0,0-2.77,0,7.12,7.12,0,0,0-2.5.8,9.44,9.44,0,0,0-2,1.59l-1.86,1.71-3.5,3.23-10.6,9.72-2.9,2.63-.76.67-.27.22s.07-.1.23-.26l.73-.71,2.83-2.7,10.49-9.84,3.48-3.25,1.85-1.73a10,10,0,0,1,2.1-1.66,7.51,7.51,0,0,1,2.65-.86,20.72,20.72,0,0,1,2.84,0l5.86.16,26.12.72,47.42,1.42,14.37.49,3.91.16,1,.06A1.6,1.6,0,0,1,318.78,360.35Z" style="fill:#263238"></path><path d="M338.36,308.39c.13.06-4.79,9.57-11,21.23s-11.33,21.06-11.46,21,4.8-9.57,11-21.23S338.24,308.32,338.36,308.39Z" style="fill:#fff"></path><path d="M302.17,306.43c.14,0-1.83,8.53-4.41,19s-4.78,18.89-4.92,18.85,1.84-8.53,4.42-19S302,306.39,302.17,306.43Z" style="fill:#fff"></path><path d="M151,322c.11-.09,6.16,6.65,13.5,15.05s13.23,15.3,13.12,15.39-6.16-6.64-13.51-15S150.87,322.06,151,322Z" style="fill:#fff"></path><path d="M174.85,288.52c.13,0,3.29,10.4,7.05,23.32s6.7,23.41,6.56,23.45-3.3-10.39-7.06-23.31S174.71,288.57,174.85,288.52Z" style="fill:#fff"></path><path d="M272.59,277.09a3.81,3.81,0,0,1,.05.7c0,.52,0,1.19,0,2v7.47c0,6.36-.1,15-.17,24.64s-.24,18.29-.32,24.64c-.07,3.11-.12,5.65-.16,7.47,0,.84,0,1.52-.07,2a3.25,3.25,0,0,1-.06.71,3.51,3.51,0,0,1,0-.71c0-.51,0-1.19,0-2,0-1.82,0-4.36,0-7.47,0-6.36.1-15,.17-24.64s.24-18.28.33-24.64c.06-3.11.11-5.64.15-7.47,0-.84.05-1.51.07-2A3.09,3.09,0,0,1,272.59,277.09Z" style="fill:#fff"></path><path d="M306.34,154.94c-3.73-4-8.25-7.77-9.55-13.08-1.2-4.89.52-10.48-2.06-14.79-3.18-5.31-11.11-5.75-14.93-10.61-1.86-2.36-2.5-5.48-4.33-7.85-3.12-4-8.92-5-14-4.25s-9.89,2.69-15,3.21c-7,.72-14.25-1.33-20.89.9-7.32,2.45-11.63,9.14-16.24,15.63l-6,7.56a27.71,27.71,0,0,1-4.07,3.52c-2.59,1.8-5.57,3.07-7.77,5.32-4.7,4.82-4,13.76,1.39,17.78a13.22,13.22,0,0,0-8.48,13.25c.28,3.1,1.66,6,2.69,8.89s1.69,6.22.54,9.1-4.72,5-7.47,3.53a13.94,13.94,0,0,0,7.88,9,8.3,8.3,0,0,1-5.51,2.67c6.11,13.11,21.74,19.59,36.2,19.18s28.11-6.35,41.33-12.2l38.58-11.43c3.39-.89,4.67-5.1,4.51-8.6s-1.18-7.12,0-10.44c1.56-4.55,6.7-7.1,8.35-11.62C313.38,164.48,310.08,158.93,306.34,154.94Z" style="fill:#263238"></path><path d="M215.47,193.55c-3.12-8.7-6.2-17.47-7.77-26.57s-1.58-18.65,1.38-27.4c.45-1.33,4.34-10.25,5.74-10.16,1,.07-1.32,8.36-.79,9.21,5.05,8.11,6.65,18,6.17,27.54a125,125,0,0,1-4.73,27.38" style="fill:#263238"></path><path d="M249.63,114.34l-2.14,0c-23.16.8-35.42,20.92-34,44.05l.66,79.76A27.11,27.11,0,0,0,240.1,265h0a27.13,27.13,0,0,0,28.31-26.33c.12-4.19.22-7.12.23-7.12s22.32-2.93,23.12-25.15c.39-10.74-.61-32.91-1.75-53A41.43,41.43,0,0,0,249.63,114.34Z" style="fill:#ffbe9d"></path><path d="M268.64,231.52s-14,.48-28.74-9.25c0,0,6.32,16.54,28.55,15.07Z" style="fill:#eb996e"></path><path d="M280.22,173.93a3.19,3.19,0,0,1-3.14,3.13,3,3,0,0,1-3.2-2.94A3.18,3.18,0,0,1,277,171,3,3,0,0,1,280.22,173.93Z" style="fill:#263238"></path><path d="M285,162.52c-.4.4-2.76-1.43-6.18-1.51s-6,1.58-6.32,1.15c-.18-.19.24-.92,1.35-1.69A8.75,8.75,0,0,1,279,159a8.39,8.39,0,0,1,4.91,1.72C284.9,161.58,285.24,162.34,285,162.52Z" style="fill:#263238"></path><path d="M249.3,173.93a3.19,3.19,0,0,1-3.14,3.13,3,3,0,0,1-3.2-2.94,3.18,3.18,0,0,1,3.13-3.14A3,3,0,0,1,249.3,173.93Z" style="fill:#263238"></path><path d="M251.55,163.1c-.4.41-2.77-1.43-6.18-1.5s-6,1.58-6.33,1.15c-.17-.19.24-.93,1.36-1.7a8.73,8.73,0,0,1,5.07-1.43,8.33,8.33,0,0,1,4.91,1.72C251.41,162.17,251.75,162.92,251.55,163.1Z" style="fill:#263238"></path><path d="M263.18,189.65c0-.2,2.12-.52,5.57-.87.87-.07,1.7-.23,1.87-.82a4.53,4.53,0,0,0-.52-2.6l-2.43-6.7c-3.35-9.54-5.76-17.38-5.38-17.51s3.42,7.49,6.78,17c.81,2.36,1.58,4.6,2.31,6.74a5,5,0,0,1,.37,3.44,2.18,2.18,0,0,1-1.46,1.24,5.58,5.58,0,0,1-1.49.17C265.34,189.87,263.19,189.84,263.18,189.65Z" style="fill:#263238"></path><path d="M253.07,191.77c.56,0,.47,3.69,3.59,6.4s7.06,2.39,7.08,2.91c.05.23-.9.7-2.57.7a9.23,9.23,0,0,1-5.92-2.22,8.12,8.12,0,0,1-2.77-5.36C252.38,192.65,252.82,191.74,253.07,191.77Z" style="fill:#263238"></path><path d="M251.69,149.24c-.36.92-3.76.4-7.78.78s-7.28,1.41-7.8.56c-.22-.4.36-1.26,1.69-2.13a13.58,13.58,0,0,1,11.87-1C251.12,148.05,251.85,148.8,251.69,149.24Z" style="fill:#263238"></path><path d="M283.9,151.13c-.62.76-2.95-.1-5.78-.21s-5.24.4-5.77-.42c-.23-.4.16-1.17,1.23-1.88a8.38,8.38,0,0,1,9.31.51C283.87,150,284.18,150.76,283.9,151.13Z" style="fill:#263238"></path><path d="M214.93,174.84c-.37-.17-15.16-4.88-15,10.33s15.37,12,15.39,11.51S214.93,174.84,214.93,174.84Z" style="fill:#ffbe9d"></path><path d="M210.59,191c-.07-.05-.26.18-.71.39a2.62,2.62,0,0,1-2,.06c-1.61-.58-3-3.12-3.08-5.86a8.8,8.8,0,0,1,.71-3.8,3.06,3.06,0,0,1,2-2.05,1.34,1.34,0,0,1,1.56.72c.21.42.12.73.2.75s.32-.26.2-.88a1.7,1.7,0,0,0-.61-.95,2,2,0,0,0-1.47-.38,3.73,3.73,0,0,0-2.75,2.38,9,9,0,0,0-.88,4.25c.12,3.06,1.71,5.92,3.92,6.54a2.82,2.82,0,0,0,2.42-.43C210.56,191.32,210.64,191,210.59,191Z" style="fill:#eb996e"></path><path d="M279.75,128.38c2.44-1.4-5.08-9.24-11.18-11.89-9.21-4-23.21-6.31-31.6-3.77-10.1,3-18.44,8.24-23.38,17.56s-6.67,20.12-6.2,30.65c.15,3.22.54,6.57,2.3,9.26,2.18,3.32,6.29,5.37,6.19,10a6.42,6.42,0,0,0,1.66,4.62c2.84,2.91,6.19.07,7.71-2.74,3.24-6,3.49-13.13,3.67-20,.13-4.85.24-9.81-1.21-14.45-.78-2.52-2-4.89-2.66-7.46s-.62-5.48.94-7.61a10.39,10.39,0,0,1,1.22-1.27,15.87,15.87,0,0,1,15.68-3.26c8.62,2.89,23.32,7.16,27.09,4.19,5.42-4.27,6.69-7,6.69-7Z" style="fill:#263238"></path><path d="M237.73,110.64c8.31-2.94,17.82-3,25.71,1,4.19,2.09,8,5.47,9.34,10s-.48,10.05-4.78,11.89l-.3.19c-6.45,2.29-10.68,1.5-17.19-.63-5.47-1.79-10.37-5.07-15.86-6.84a31,31,0,0,0-18.09-.22C222.26,119.24,229.42,113.58,237.73,110.64Z" style="fill:#263238"></path><path d="M202.25,176a6.38,6.38,0,0,1-.75-.88,12.39,12.39,0,0,1-1.61-2.93,12.64,12.64,0,0,1,1.33-11.82,12.71,12.71,0,0,1,2.8-3,14.23,14.23,0,0,1,3.9-2.12c2.84-1.1,6.14-1.67,8.84-3.71a7.45,7.45,0,0,0,2.81-4.12,17,17,0,0,0,.29-5.36c-.25-3.69-.4-7.66.83-11.5a17.61,17.61,0,0,1,7.08-9,26.46,26.46,0,0,1,9.93-4.12,25.25,25.25,0,0,1,9.73,0,21.16,21.16,0,0,1,7.8,3.31,20.55,20.55,0,0,1,7.59,9.47,17.38,17.38,0,0,1,.91,3.21l.12.86a1.36,1.36,0,0,1,0,.3,23.28,23.28,0,0,0-1.23-4.29,21,21,0,0,0-15.3-12.43,24.75,24.75,0,0,0-9.55,0,26.07,26.07,0,0,0-9.73,4.07,17.17,17.17,0,0,0-6.87,8.76c-1.2,3.72-1.07,7.62-.82,11.31a17.29,17.29,0,0,1-.32,5.52,7.89,7.89,0,0,1-3,4.37c-2.84,2.12-6.19,2.67-9,3.74a13.07,13.07,0,0,0-6.55,4.91A12.5,12.5,0,0,0,199.3,167a12.86,12.86,0,0,0,.78,5.12A15.29,15.29,0,0,0,202.25,176Z" style="fill:#455a64"></path><path d="M200.61,179.45a9,9,0,0,1-1.17-.68,15.35,15.35,0,0,1-2.93-2.54,16.34,16.34,0,0,1-3.14-5.26,15.42,15.42,0,0,1-.62-8.06,15.78,15.78,0,0,1,4.61-8.62c2.56-2.52,5.95-4.32,9.11-6.66a18.73,18.73,0,0,0,4.27-4.21,20.57,20.57,0,0,0,2.71-5.64c1.36-4.06,2-8.56,3.91-12.8a24.19,24.19,0,0,1,8.8-10A24.71,24.71,0,0,1,238,111a26.93,26.93,0,0,1,11.16,1.64,27.58,27.58,0,0,1,8.46,5,29.77,29.77,0,0,1,8.1,11.61,22.77,22.77,0,0,1,1.42,5,1.57,1.57,0,0,1-.1-.32c-.07-.25-.15-.57-.26-1a32,32,0,0,0-1.25-3.65,30,30,0,0,0-8.15-11.4,27.09,27.09,0,0,0-8.37-4.89,26.61,26.61,0,0,0-11-1.58,24.35,24.35,0,0,0-11.56,3.88,23.77,23.77,0,0,0-8.61,9.81c-1.9,4.13-2.52,8.62-3.89,12.74a21,21,0,0,1-2.8,5.77,19.19,19.19,0,0,1-4.38,4.3c-3.22,2.36-6.58,4.14-9.09,6.59a15.49,15.49,0,0,0-4.56,8.37,15.25,15.25,0,0,0,.54,7.91,16,16,0,0,0,5.85,7.8C200.22,179.2,200.63,179.42,200.61,179.45Z" style="fill:#455a64"></path><path d="M290.51,377.46s-41.31-9.61-47.62-10.08c-5.92-.44-7.46,3.27-7.46,3.27s-8.86-1.11-10.81,4.06c0,0-1.56,3,2.07,4.54s23.33,5.87,27.38,9.64,38,23.05,38,23.05l13.69,5.59s6.15-16.07,6.43-20.68a12.23,12.23,0,0,0-1.4-7.12s8.52-8.66,9.5-12.15,7.13-15.51,7.13-15.51-5.77-5.88-11.48,1-8.91,10-10.46,11.25C301,377.9,293.14,378.29,290.51,377.46Z" style="fill:#ffbe9d"></path><path d="M276.76,389.51s-.16,0-.44-.17l-1.21-.58-4.45-2.13c-3.77-1.76-9-4.09-15-6.27-3-1.09-5.85-2.06-8.48-2.88s-5-1.42-7-2.27a9.29,9.29,0,0,1-4-2.91,5.68,5.68,0,0,1-.65-1.2,1.33,1.33,0,0,1-.12-.45,12.29,12.29,0,0,0,.93,1.53,9.58,9.58,0,0,0,4,2.69c1.91.78,4.34,1.33,7,2.15s5.53,1.75,8.52,2.85a153.64,153.64,0,0,1,15,6.43c1.87.93,3.36,1.72,4.38,2.28l1.17.67A2.23,2.23,0,0,1,276.76,389.51Z" style="fill:#eb996e"></path><path d="M303.6,375.69a9.67,9.67,0,0,1-3.73,3.07,9.53,9.53,0,0,1-4.63,1.35c0-.15,2.08-.57,4.39-1.81S303.49,375.57,303.6,375.69Z" style="fill:#eb996e"></path></g></svg>